<?xml version="1.0" encoding="UTF-8"?>
<svg version="1.1" xmlns="http://www.w3.org/2000/svg" width="1096" height="468">
<path d="M0 0 C361.68 0 723.36 0 1096 0 C1096 154.44 1096 308.88 1096 468 C734.32 468 372.64 468 0 468 C0 313.56 0 159.12 0 0 Z " fill="#FEFEFE" transform="translate(0,0)"/>
<path d="M0 0 C1.5300769 0.01244751 1.5300769 0.01244751 3.09106445 0.02514648 C10.29749111 0.18747161 16.23003832 0.92756175 22.625 4.4375 C23.60210937 4.92347656 24.57921875 5.40945312 25.5859375 5.91015625 C31.05080305 8.82153928 35.28403499 11.89722999 39.5 16.4375 C44.16080509 21.38960541 48.99758565 23.83671549 55.11328125 26.6796875 C69.50643954 33.88427174 83.04761175 46.88559234 91.625 60.4375 C92.30175781 61.50613281 92.97851562 62.57476562 93.67578125 63.67578125 C103.79295224 80.23481885 109.22607555 98.23109651 109.0625 117.6875 C109.05114014 119.59438599 109.05114014 119.59438599 109.03955078 121.53979492 C108.86761481 131.38720796 107.73870786 140.11559685 104.625 149.4375 C104.28758789 150.47052246 104.28758789 150.47052246 103.94335938 151.52441406 C101.15708381 159.93313274 97.99971146 168.29819954 92.625 175.4375 C91.965 175.7675 91.305 176.0975 90.625 176.4375 C90.625 174.7875 90.625 173.1375 90.625 171.4375 C89.635 171.4375 88.645 171.4375 87.625 171.4375 C85.9375 168.9375 85.9375 168.9375 84.625 166.4375 C79.35184667 166.8827885 74.60729776 167.52123163 69.625 169.4375 C69.625 171.0875 69.625 172.7375 69.625 174.4375 C72.595 175.4275 72.595 175.4275 75.625 176.4375 C75.625 176.7675 75.625 177.0975 75.625 177.4375 C73.315 177.7675 71.005 178.0975 68.625 178.4375 C65.625 174.8125 65.625 174.8125 65.625 171.4375 C62.655 172.4275 62.655 172.4275 59.625 173.4375 C59.625 177.0675 59.625 180.6975 59.625 184.4375 C61.605 184.4375 63.585 184.4375 65.625 184.4375 C62.625 186.4375 62.625 186.4375 60.625 186.4375 C62.54891649 191.75161494 62.54891649 191.75161494 66.625 195.4375 C67.3789292 198.85917866 67.6772865 200.22802616 66.625 203.4375 C56.45932792 214.59553531 36.8489431 219.98221634 22.625 223.4375 C21.10712891 223.80681641 21.10712891 223.80681641 19.55859375 224.18359375 C3.25515667 227.47149135 -12.09957806 224.69258439 -28.375 221.4375 C-28.375 203.9475 -28.375 186.4575 -28.375 168.4375 C-38.935 168.4375 -49.495 168.4375 -60.375 168.4375 C-60.045 166.7875 -59.715 165.1375 -59.375 163.4375 C-59.23208812 161.38116635 -59.12963062 159.32178808 -59.05859375 157.26171875 C-59.01669922 156.10478516 -58.97480469 154.94785156 -58.93164062 153.75585938 C-58.89232422 152.55767578 -58.85300781 151.35949219 -58.8125 150.125 C-58.76931641 148.90748047 -58.72613281 147.68996094 -58.68164062 146.43554688 C-58.57578504 143.4363053 -58.47370274 140.43698409 -58.375 137.4375 C-59.64847066 138.20789682 -60.91866977 138.98370292 -62.1875 139.76171875 C-62.89519531 140.19315186 -63.60289062 140.62458496 -64.33203125 141.0690918 C-76.1098475 148.95803301 -81.20005263 166.59150808 -85.375 179.4375 C-86.035 179.4375 -86.695 179.4375 -87.375 179.4375 C-102.86094388 151.63162743 -111.27520842 122.17597907 -102.375 90.4375 C-95.19345505 66.66792583 -80.68975123 46.35850234 -60.75 31.5625 C-60.14067627 31.10987793 -59.53135254 30.65725586 -58.90356445 30.19091797 C-48.13010481 22.4375 -48.13010481 22.4375 -43.375 22.4375 C-43.10171875 21.84453125 -42.8284375 21.2515625 -42.546875 20.640625 C-37.19284959 10.57505723 -24.34539341 4.31805955 -13.83837891 1.00439453 C-9.2497785 -0.05157476 -4.68945358 -0.04905367 0 0 Z " fill="#042845" transform="translate(204.375,122.5625)"/>
<path d="M0 0 C1.52898635 1.1929172 3.03075596 2.42173041 4.5 3.6875 C5.57507813 4.59822266 5.57507813 4.59822266 6.671875 5.52734375 C17.08311392 15.09707276 21.09432543 27.10175389 21.69921875 40.8515625 C22.21357679 57.2480373 18.21816296 68.18171484 6.9921875 80.421875 C-1.4715357 88.76222031 -12.08521272 93.85276685 -24.125 93.8125 C-25.91695329 93.78587365 -27.70872582 93.74355694 -29.5 93.6875 C-30.41652344 93.65914063 -31.33304688 93.63078125 -32.27734375 93.6015625 C-44.4630519 92.8837508 -55.33913485 86.74074989 -63.734375 77.93359375 C-75.38195508 63.11642883 -77.0306226 47.97681177 -75.5 29.6875 C-74.52901671 25.08711313 -73.03405107 21.62803844 -70.5 17.6875 C-69.85675781 16.6665625 -69.21351563 15.645625 -68.55078125 14.59375 C-61.7163987 4.6796008 -52.87401037 -2.29565619 -41.5 -6.3125 C-40.86835938 -6.53679687 -40.23671875 -6.76109375 -39.5859375 -6.9921875 C-26.33204167 -10.97381053 -11.34580501 -7.6104169 0 0 Z " fill="#E5F0F4" transform="translate(231.5,139.3125)"/>
<path d="M0 0 C5.55010083 -0.07453648 11.09990586 -0.12878399 16.65039062 -0.16479492 C18.53585897 -0.17981793 20.42129275 -0.20024231 22.30664062 -0.22631836 C25.0274309 -0.26298863 27.74775641 -0.27979146 30.46875 -0.29296875 C31.30241089 -0.30845261 32.13607178 -0.32393646 32.99499512 -0.33988953 C38.99419855 -0.34158827 44.71153612 0.37739931 49.57957458 4.25973511 C53.76848914 8.68346143 53.64702874 12.75427816 53.5144043 18.53320312 C53.04501675 29.44181925 50.56078155 41.71460928 42.41796875 49.515625 C40.98659312 50.72759269 39.49644306 51.86935414 38 53 C37.01 53.99 37.01 53.99 36 55 C36.804375 55.61875 37.60875 56.2375 38.4375 56.875 C41 59 41 59 42 61 C43.05057006 76.74132838 40.89658169 90.05608131 33.6875 104.125 C33.33308838 104.82375244 32.97867676 105.52250488 32.61352539 106.24243164 C28.5466094 113.68147252 22.94909055 118.20309777 15 121 C10.40085164 122.20915357 5.91835701 122.12789825 1.19921875 122.09765625 C0.36284378 122.0962413 -0.47353119 122.09482635 -1.33525085 122.09336853 C-3.994371 122.08779184 -6.6534055 122.07524365 -9.3125 122.0625 C-11.12044149 122.05748199 -12.9283843 122.05291961 -14.73632812 122.04882812 C-19.15758484 122.03783004 -23.57877793 122.0205815 -28 122 C-24.67518031 103.09978736 -20.4134031 84.39985661 -15.82510376 65.77114868 C-11.88133453 49.74917651 -8.23340066 33.66061342 -4.59301758 17.56738281 C-4.3618927 16.55000534 -4.13076782 15.53262787 -3.89263916 14.48442078 C-3.45490753 12.5575263 -3.01930811 10.63014587 -2.58612061 8.70222473 C-2.39149231 7.84666489 -2.19686401 6.99110504 -1.99633789 6.10961914 C-1.82727432 5.36088028 -1.65821075 4.61214142 -1.48402405 3.8407135 C-1 2 -1 2 0 0 Z " fill="#07516F" transform="translate(505,177)"/>
<path d="M0 0 C3.98973514 2.72749592 7.00820572 5.6912278 8.765625 10.20703125 C10.09698327 22.30137002 7.66912468 33.18439239 4.62207031 44.81494141 C2.8247175 51.93364721 1.25660052 59.10790665 -0.359375 66.26953125 C-1.63701258 71.91864889 -2.92683193 77.56476027 -4.234375 83.20703125 C-4.5017749 84.36920166 -4.7691748 85.53137207 -5.04467773 86.72875977 C-7.9475337 98.9128814 -13.28994711 109.60317576 -24.046875 116.51953125 C-32.56358068 121.27215719 -41.5589991 122.32116544 -51.234375 121.20703125 C-56.97616016 119.5320193 -61.01937205 117.14301871 -64.296875 112.08203125 C-70.9961202 99.8278959 -66.25931214 85.2019614 -63.109375 72.51953125 C-62.48106566 69.9251334 -61.85735777 67.3296567 -61.23391724 64.73408508 C-60.81890249 63.00810842 -60.4019833 61.28258854 -59.98312378 59.55754089 C-58.45635076 53.24326293 -57.10951096 46.90937186 -55.81054688 40.54418945 C-53.10962516 27.44866897 -49.93751997 12.85767342 -38.68359375 4.2578125 C-37.77222656 3.68417969 -36.86085938 3.11054688 -35.921875 2.51953125 C-35.01824219 1.93816406 -34.11460937 1.35679687 -33.18359375 0.7578125 C-23.67041811 -4.24447986 -9.6597051 -5.21697813 0 0 Z " fill="#08526F" transform="translate(480.234375,178.79296875)"/>
<path d="M0 0 C8.25 0 16.5 0 25 0 C25.05238744 12.19972455 24.85888938 24.36869133 24.5 36.5625 C24.45160383 38.26757192 24.40342578 39.97265005 24.35546875 41.67773438 C24.23947964 45.78523175 24.1205879 49.89263518 24 54 C28.0829039 36.01717097 32.11199114 18.02622288 36 0 C43.92 0 51.84 0 60 0 C59.35000688 5.19994496 58.68830527 9.7358188 57.43359375 14.734375 C57.11712891 16.0116748 56.80066406 17.28897461 56.47460938 18.60498047 C56.30598389 19.27833435 56.1373584 19.95168823 55.96362305 20.64544678 C52.7880997 33.34790854 49.811743 46.0874115 47 58.875 C46.34130449 61.86852454 45.68253896 64.86203357 45.0234375 67.85546875 C44.85964096 68.59968582 44.69584442 69.34390289 44.52708435 70.110672 C42.28236405 80.28575687 39.94458931 90.43969673 37.61328125 100.59521484 C37.45398132 101.28945557 37.2946814 101.98369629 37.1305542 102.69897461 C36.68188668 104.6528474 36.23208015 106.60645854 35.78222656 108.56005859 C35.11116802 111.51112439 34.4682497 114.46625741 33.8359375 117.42578125 C33 121 33 121 32 122 C24.41 122 16.82 122 9 122 C9 104.18 9 86.36 9 68 C7.7625 73.40375 6.525 78.8075 5.25 84.375 C4.85063232 86.11813477 4.45126465 87.86126953 4.03979492 89.65722656 C2.01100989 98.5226514 -0.01032325 107.3892735 -1.89550781 116.28662109 C-2.89228162 120.89228162 -2.89228162 120.89228162 -4 122 C-5.70772358 122.08713831 -7.41898649 122.10700007 -9.12890625 122.09765625 C-10.68061523 122.09282227 -10.68061523 122.09282227 -12.26367188 122.08789062 C-13.35228516 122.07951172 -14.44089844 122.07113281 -15.5625 122.0625 C-17.2012207 122.05573242 -17.2012207 122.05573242 -18.87304688 122.04882812 C-21.58208495 122.03699826 -24.29101599 122.02051543 -27 122 C-26.31405088 114.0117318 -24.67978721 106.31619149 -22.9375 98.5 C-22.78349731 97.80205322 -22.62949463 97.10410645 -22.4708252 96.38500977 C-20.0470008 85.40253941 -17.45513497 74.46654101 -14.76925659 63.54519653 C-11.36830055 49.70903005 -8.17278582 35.82758087 -5 21.9375 C-4.75044556 20.84501953 -4.50089111 19.75253906 -4.24377441 18.62695312 C-2.82633732 12.41861142 -1.4127641 6.20940984 0 0 Z " fill="#07516F" transform="translate(744,177)"/>
<path d="M0 0 C6.15638608 -0.07431567 12.31250935 -0.12868084 18.46923828 -0.16479492 C20.56238353 -0.17985469 22.65549736 -0.20030671 24.74853516 -0.22631836 C27.76212328 -0.26282501 30.77529312 -0.27975473 33.7890625 -0.29296875 C34.72054108 -0.30845261 35.65201965 -0.32393646 36.61172485 -0.33988953 C43.04362998 -0.34154483 47.25871562 0.70324822 52.3125 4.9375 C56.20067763 9.6897171 55.36316981 16.18243076 55 22 C53.70831418 33.48296842 51.13388852 46.90823883 41.95703125 54.83203125 C39 57 39 57 36 58 C36.804375 58.61875 37.60875 59.2375 38.4375 59.875 C40.98323051 61.9860936 41.82163708 62.73871937 42.2734375 65.93359375 C42.55997647 72.99788146 41.10774646 79.0654923 39.21166992 85.79003906 C37.05212302 93.52433541 35.34556141 101.33182558 33.6875 109.1875 C33.42114746 110.44812256 33.15479492 111.70874512 32.88037109 113.00756836 C32.25002485 116.00429981 31.62448523 119.00204169 31 122 C23.08 122 15.16 122 7 122 C8.12469944 111.877705 8.12469944 111.877705 8.93969727 108.38574219 C9.20986412 107.20972443 9.20986412 107.20972443 9.48548889 106.00994873 C9.67719162 105.1971344 9.86889435 104.38432007 10.06640625 103.546875 C10.26475571 102.6836261 10.46310516 101.8203772 10.66746521 100.93096924 C11.50723748 97.27641201 12.35868675 93.62460563 13.2097168 89.97265625 C13.83303916 87.29006327 14.44990458 84.60604223 15.06640625 81.921875 C15.26013321 81.10096375 15.45386017 80.28005249 15.65345764 79.43426514 C16.54455841 75.54976256 17.2499012 72.01659376 17 68 C14.69 67.34 12.38 66.68 10 66 C7.92536587 75.26382252 5.87473535 84.53189402 3.89453125 93.81640625 C3.7227536 94.61984467 3.55097595 95.42328308 3.37399292 96.25106812 C2.67183178 99.53535428 1.96990908 102.81967463 1.27368164 106.10522461 C0.75484839 108.55135484 0.23137433 110.99645207 -0.29296875 113.44140625 C-0.52888985 114.5629586 -0.52888985 114.5629586 -0.76957703 115.70716858 C-1.88629043 120.88629043 -1.88629043 120.88629043 -3 122 C-4.78071246 122.08726223 -6.5648314 122.10699041 -8.34765625 122.09765625 C-9.42724609 122.09443359 -10.50683594 122.09121094 -11.61914062 122.08789062 C-12.75544922 122.07951172 -13.89175781 122.07113281 -15.0625 122.0625 C-16.20267578 122.05798828 -17.34285156 122.05347656 -18.51757812 122.04882812 C-21.34510351 122.03699747 -24.1725264 122.0205141 -27 122 C-26.39637663 115.48620577 -25.28139127 109.31739426 -23.7421875 102.96484375 C-23.51840424 102.02104355 -23.29462097 101.07724335 -23.0640564 100.10484314 C-22.58613158 98.09059008 -22.10594155 96.07687335 -21.62365723 94.06365967 C-20.35477834 88.76521621 -19.10307629 83.4627239 -17.8515625 78.16015625 C-17.60313599 77.10880493 -17.35470947 76.05745361 -17.09875488 74.97424316 C-15.05419255 66.29411275 -13.12230493 57.59367792 -11.25 48.875 C-8.28670343 35.09549308 -5.02662133 21.40387129 -1.64501953 7.72192383 C-1.03717215 5.15686309 -0.49940661 2.58812908 0 0 Z " fill="#07516F" transform="translate(929,177)"/>
<path d="M0 0 C7.92 0 15.84 0 24 0 C23.34522523 5.23819812 22.66503598 9.83548085 21.40625 14.87890625 C21.09816406 16.12994141 20.79007813 17.38097656 20.47265625 18.66992188 C20.14886094 19.96755365 19.82463901 21.26507904 19.5 22.5625 C18.86048995 25.12533175 18.22598512 27.68925374 17.59375 30.25390625 C17.31208984 31.38127197 17.03042969 32.5086377 16.74023438 33.67016602 C15.97749797 37.10122204 15.45318863 40.51569787 15 44 C18.63 44 22.26 44 26 44 C26.25652344 42.34226563 26.51304687 40.68453125 26.77734375 38.9765625 C27.93296506 32.04690729 29.46919014 25.22066121 31.08666992 18.38720703 C31.56985569 16.34389398 32.04603748 14.29903244 32.52148438 12.25390625 C34.86011358 2.27977284 34.86011358 2.27977284 36 0 C43.92 0 51.84 0 60 0 C58.20718273 8.96408636 56.29488323 17.88990881 54.3125 26.8125 C54.04880615 28.00141846 54.04880615 28.00141846 53.77978516 29.21435547 C51.20099531 40.82472311 48.49000023 52.39346427 45.65454102 63.9440918 C42.83826098 75.49220279 40.27931028 87.09466931 37.75195312 98.70898438 C37.5909613 99.44402191 37.42996948 100.17905945 37.26409912 100.93637085 C36.82847011 102.92600891 36.3960432 104.91634733 35.96386719 106.90673828 C34.77159888 111.96995266 33.36865682 116.98159167 32 122 C24.08 122 16.16 122 8 122 C9.50291815 112.12927196 11.66831773 102.51065679 14 92.8125 C14.53646459 90.56520724 15.0717848 88.31764425 15.60693359 86.07003784 C15.94793851 84.63806227 16.28939778 83.2061948 16.63134766 81.77444458 C17.8032105 76.85961353 18.92646204 71.93715636 20 67 C16.37 67 12.74 67 9 67 C6.20023958 79.5310946 3.456698 92.07349804 0.75 104.625 C0.38286194 106.32553151 0.01567463 108.02605238 -0.3515625 109.7265625 C-1.23502862 113.81756778 -2.11749736 117.90878631 -3 122 C-11.25 122 -19.5 122 -28 122 C-25.07174616 107.87306108 -21.93304892 93.8070194 -18.6875 79.75 C-17.70744294 75.49499635 -16.72857497 71.23971973 -15.75 66.984375 C-15.51105515 65.94591431 -15.27211029 64.90745361 -15.02592468 63.83752441 C-13.64695294 57.83795511 -12.28099139 51.83573843 -10.9375 45.828125 C-10.71028763 44.8121801 -10.71028763 44.8121801 -10.47848511 43.77571106 C-10.04812448 41.85048125 -9.61781147 39.9252408 -9.1875 38 C-6.33695652 25.27611786 -3.21788151 12.6360713 0 0 Z " fill="#07526F" transform="translate(606,177)"/>
<path d="M0 0 C7.92 0 15.84 0 24 0 C22.71775932 8.11091781 21.16040131 16.07351474 19.26953125 24.0625 C19.00888382 25.17810303 18.74823639 26.29370605 18.47969055 27.44311523 C17.656655 30.96291442 16.82854621 34.48149439 16 38 C14.15342455 45.87513007 12.31199629 53.75145664 10.4753418 61.62890625 C9.94330212 63.90544911 9.40906787 66.18148004 8.87280273 68.45703125 C8.07987541 71.82417197 7.29505024 75.19311577 6.51171875 78.5625 C6.27321701 79.56676025 6.03471527 80.57102051 5.78898621 81.60571289 C4.37585889 87.72652541 3.45781305 93.73402862 3 100 C6.37436186 100.33380814 6.37436186 100.33380814 10 100 C17.05234137 92.91012336 17.93523619 78.27758741 20 68.8125 C20.59278701 66.14009394 21.18727487 63.4681397 21.78515625 60.796875 C22.03073021 59.6993264 22.03073021 59.6993264 22.28126526 58.5796051 C24.91067634 46.88670351 27.68578298 35.22707534 30.4375 23.5625 C30.71247314 22.39635162 30.98744629 21.23020325 31.27075195 20.02871704 C32.84529243 13.35203268 34.42233143 6.67594728 36 0 C43.92 0 51.84 0 60 0 C59.41863281 2.61292969 58.83726562 5.22585937 58.23828125 7.91796875 C56.85283611 14.14803111 55.47506984 20.37971812 54.10546875 26.61328125 C49.95693591 45.46579666 45.6271579 64.25853687 41 83 C40.60893066 84.61237549 40.60893066 84.61237549 40.20996094 86.25732422 C37.07677298 99.06004257 33.23336577 110.50310019 21.95703125 118.4375 C13.00149262 123.29958884 1.14363781 124.91810304 -8.69140625 122.27734375 C-13.31744027 120.39492134 -16.29958817 118.32065893 -19 114 C-19.35441162 113.45520996 -19.70882324 112.91041992 -20.07397461 112.34912109 C-24.69264836 100.63256987 -19.88818742 85.0020648 -16.9375 73.375 C-16.5227251 71.67521122 -16.11033108 69.97483988 -15.70019531 68.27392578 C-15.07601321 65.68630241 -14.45052767 63.09909525 -13.81741333 60.51364136 C-11.97778286 52.99448328 -10.3029357 45.4453796 -8.67950439 37.87701416 C-5.96122083 25.20649842 -3.0557546 12.59341288 0 0 Z " fill="#08526F" transform="translate(675,177)"/>
<path d="M0 0 C16.17 0 32.34 0 49 0 C47.68 5.94 46.36 11.88 45 18 C44.67 19.98 44.34 21.96 44 24 C35.75 24 27.5 24 19 24 C18.67 26.31 18.34 28.62 18 31 C17.7025607 32.40048744 17.38267306 33.79666322 17.02734375 35.18359375 C16.86741943 35.81579834 16.70749512 36.44800293 16.54272461 37.09936523 C16.24313843 38.25674194 16.24313843 38.25674194 15.9375 39.4375 C15.298125 41.933125 14.65875 44.42875 14 47 C21.59 47 29.18 47 37 47 C35.0625 55.6875 35.0625 55.6875 34.45727539 58.3972168 C34.29735107 59.11562744 34.13742676 59.83403809 33.97265625 60.57421875 C33.81031494 61.30213623 33.64797363 62.03005371 33.48071289 62.7800293 C32.96077838 65.18112859 32.48180788 67.59096059 32 70 C24.08 70 16.16 70 8 70 C7.67 72.64 7.34 75.28 7 78 C6.7008487 79.65057374 6.38037653 81.29760579 6.02734375 82.9375 C5.86741943 83.68902344 5.70749512 84.44054687 5.54272461 85.21484375 C5.24313843 86.59349609 5.24313843 86.59349609 4.9375 88 C4.298125 90.97 3.65875 93.94 3 97 C10.92 97.33 18.84 97.66 27 98 C26 108 26 108 23 122 C6.17 122 -10.66 122 -28 122 C-23.40932971 100.19431611 -23.40932971 100.19431611 -21.44921875 91.734375 C-21.22963501 90.77952209 -21.01005127 89.82466919 -20.78381348 88.84088135 C-20.08661374 85.81022317 -19.38710425 82.78010392 -18.6875 79.75 C-17.70744294 75.49499635 -16.72857497 71.23971973 -15.75 66.984375 C-15.51105515 65.94591431 -15.27211029 64.90745361 -15.02592468 63.83752441 C-13.64695294 57.83795511 -12.28099139 51.83573843 -10.9375 45.828125 C-10.71028763 44.8121801 -10.71028763 44.8121801 -10.47848511 43.77571106 C-10.04812448 41.85048125 -9.61781147 39.9252408 -9.1875 38 C-6.33695652 25.27611786 -3.21788151 12.6360713 0 0 Z " fill="#06516F" transform="translate(871,177)"/>
<path d="M0 0 C0.6290625 0.16242188 1.258125 0.32484375 1.90625 0.4921875 C6.11842114 1.18357923 10.2392084 1.14457485 14.5 1.125 C15.34175781 1.12886719 16.18351562 1.13273438 17.05078125 1.13671875 C21.16268987 1.1302433 24.99018972 1.03531987 29 0 C28.34 1.98 27.68 3.96 27 6 C30.0831351 4.80100302 33.06279492 3.52299523 36 2 C38.23038004 3.91175432 39.04089543 5.11306385 40.0625 7.9375 C42.9414077 12.48803153 47.01652868 13.41052509 52 15 C50.58464484 19.51217119 48.82501049 23.78192146 46.83984375 28.06640625 C46.53388779 28.73391907 46.22793182 29.40143188 45.91270447 30.08917236 C45.26026561 31.51259661 44.60661443 32.93546571 43.95184326 34.3578186 C38.06696658 47.14863472 32.30653737 59.98066358 26.85644531 72.96386719 C26.08652468 74.79429422 25.3056665 76.6201115 24.5234375 78.4453125 C21.74987363 84.96233681 19.36514829 91.55012806 17.11328125 98.26171875 C16 101 16 101 14 102 C13.64550781 100.90429688 13.29101562 99.80859375 12.92578125 98.6796875 C8.73010711 86.07504191 3.65483906 73.96210432 -1.73120117 61.83154297 C-2.01268005 61.19490723 -2.29415894 60.55827148 -2.58416748 59.90234375 C-3.35819442 58.15438825 -4.13779263 56.40890291 -4.91772461 54.66357422 C-6 52 -6 52 -6 50 C-18.54 50 -31.08 50 -44 50 C-44.33 41.09 -44.66 32.18 -45 23 C-41.125266 21.56680909 -37.24903039 20.13981989 -33.36669922 18.72753906 C-32.04837276 18.24597338 -30.73128782 17.76099398 -29.41552734 17.27246094 C-27.51721158 16.56831656 -25.61467748 15.87682345 -23.7109375 15.1875 C-22.56931152 14.76855469 -21.42768555 14.34960938 -20.25146484 13.91796875 C-16.99644789 12.99899715 -14.3617804 12.82189243 -11 13 C-10.896875 11.9275 -10.79375 10.855 -10.6875 9.75 C-10.02599507 6.14179128 -9.42516579 4.63604977 -7 2 C-6.4225 2.165 -5.845 2.33 -5.25 2.5 C-2.73335631 3.14462031 -2.73335631 3.14462031 1 3 C0.505 1.515 0.505 1.515 0 0 Z " fill="#072A46" transform="translate(190,236)"/>
<path d="M0 0 C7.92 0 15.84 0 24 0 C23.29190508 4.95666443 22.47812313 9.66980833 21.3984375 14.5390625 C21.24128769 15.24951218 21.08413788 15.95996185 20.92222595 16.69194031 C20.40956119 19.00365701 19.89254396 21.31437113 19.375 23.625 C19.19770355 24.42078461 19.0204071 25.21656921 18.83773804 26.03646851 C16.16880561 38.01065847 13.37630456 49.94847866 10.43725586 61.85961914 C8.8294291 68.41034893 7.37033505 74.96770891 6.04223633 81.58056641 C3.12888562 95.94619644 -1.07664003 109.07046802 -13.75 117.8125 C-22.0003906 122.50887619 -31.60586217 124.31693521 -41 123 C-47.86599866 120.82108646 -53.09268064 117.08446041 -57 111 C-60.12050713 101.63847862 -56.84436146 91.79765415 -54.5625 82.5625 C-54.23272045 81.18839149 -53.90393744 79.81404342 -53.57617188 78.43945312 C-51.25011692 68.75035075 -51.25011692 68.75035075 -50 65 C-42.08 65 -34.16 65 -26 65 C-26.61875 68.155625 -27.2375 71.31125 -27.875 74.5625 C-28.06562012 75.5429126 -28.25624023 76.5233252 -28.45263672 77.53344727 C-29.21324554 81.37269228 -29.99783324 85.15895603 -31.12109375 88.91015625 C-32.11531902 92.40541044 -32.21699679 95.38338689 -32 99 C-30.81575674 100.41577477 -30.81575674 100.41577477 -27.4375 100.0625 C-26.303125 100.041875 -25.16875 100.02125 -24 100 C-21.29874014 90.68209878 -19.16178484 81.24158108 -17.00945663 71.78605461 C-16.35586103 68.91509148 -15.69931327 66.04481717 -15.04202271 63.17469788 C-13.41309288 56.05922768 -11.78888954 48.94268064 -10.16503906 41.8260498 C-8.7862324 35.78392541 -7.40540313 29.74227076 -6.02170181 23.70126534 C-5.37430574 20.87096343 -4.72994478 18.03998128 -4.08566284 15.20896912 C-3.69121537 13.48555005 -3.29662106 11.76216458 -2.90185547 10.03881836 C-2.72314911 9.24977615 -2.54444275 8.46073395 -2.36032104 7.64778137 C-1.11387041 2.22774082 -1.11387041 2.22774082 0 0 Z " fill="#08526F" transform="translate(402,177)"/>
<path d="M0 0 C17.49 0 34.98 0 53 0 C51.45647444 7.71762782 49.79227561 15.3420951 48 23 C43.05 23 38.1 23 33 23 C32.73574219 24.70671875 32.47148438 26.4134375 32.19921875 28.171875 C31.06683794 34.9562354 29.48155138 41.58075078 27.8125 48.25 C25.20147645 58.86522998 22.74568461 69.50236984 20.4375 80.1875 C17.41821742 94.15603462 14.24248658 108.08103321 11 122 C2.75 122 -5.5 122 -14 122 C-12.65394129 115.26970647 -11.25664754 108.57891356 -9.71484375 101.89453125 C-9.49767197 100.94782059 -9.28050018 100.00110992 -9.05674744 99.02571106 C-8.35177628 95.95430673 -7.64475073 92.88338015 -6.9375 89.8125 C-6.44735451 87.68084381 -5.95728371 85.54917044 -5.46728516 83.41748047 C-4.4686906 79.07420753 -3.46918224 74.73114604 -2.46923828 70.38818359 C-1.29432754 65.28312254 -0.12410766 60.17700454 1.04362488 55.07029724 C1.87375419 51.44107975 2.70592502 47.8123324 3.5385437 44.1836853 C3.92848195 42.48240036 4.31758562 40.78092392 4.70584106 39.07925415 C5.24162466 36.73197169 5.780563 34.38543567 6.3203125 32.0390625 C6.47709976 31.34867386 6.63388702 30.65828522 6.79542542 29.94697571 C7.88589983 25.22820035 7.88589983 25.22820035 9 23 C4.38 23 -0.24 23 -5 23 C-4.48824634 14.42812618 -2.66027546 8.64589523 0 0 Z " fill="#07516F" transform="translate(811,177)"/>
<path d="M0 0 C6.05771373 6.05771373 4.43654369 18.52638415 4.43823242 26.42626953 C4.24582466 38.64373883 1.89416445 50.17125089 -1 62 C-1.35215576 63.4533374 -1.35215576 63.4533374 -1.71142578 64.93603516 C-2.76912686 69.27253566 -3.85557938 73.59945988 -4.984375 77.91796875 C-5.84475364 81.25694716 -6.49900917 84.58563858 -7 88 C-26.80107446 92.25938606 -42.40921619 91.11815676 -63 87 C-63 69.51 -63 52.02 -63 34 C-73.56 34 -84.12 34 -95 34 C-94.67 32.35 -94.34 30.7 -94 29 C-81.13 29 -68.26 29 -55 29 C-39.45330296 64.09111617 -39.45330296 64.09111617 -34 80 C-33.67128906 79.01644531 -33.34257812 78.03289062 -33.00390625 77.01953125 C-26.05220975 56.57307014 -16.8216329 37.1067252 -7.7644043 17.53027344 C-7.39977081 16.74138733 -7.03513733 15.95250122 -6.65945435 15.13970947 C-5.97037405 13.64968943 -5.28015393 12.16019579 -4.58859253 10.67132568 C-2.95935121 7.14902047 -1.39669863 3.62129863 0 0 Z " fill="#1F5A78" transform="translate(239,257)"/>
<path d="M0 0 C7.68955878 4.01440201 14.02270401 9.79584701 16.76171875 18.19921875 C18.38394382 26.72706247 18.27222401 35.70650324 13.80078125 43.2890625 C9.06890325 49.59059495 3.30015845 53.26220605 -3.8125 56.4375 C-3.3175 59.9025 -3.3175 59.9025 -2.8125 63.4375 C-5.7825 64.4275 -5.7825 64.4275 -8.8125 65.4375 C-9.1425 62.4675 -9.4725 59.4975 -9.8125 56.4375 C-10.84697266 56.43363281 -10.84697266 56.43363281 -11.90234375 56.4296875 C-21.54272897 56.03296383 -27.15805216 52.48808589 -33.6875 45.5625 C-39.05317263 38.96434108 -40.39281322 32.94179784 -40.16796875 24.47265625 C-39.37840874 17.73102848 -36.71415217 11.20667509 -31.8125 6.4375 C-22.18929207 -0.77990594 -11.90936176 -4.8258805 0 0 Z " fill="#69D9EE" transform="translate(280.8125,211.5625)"/>
<path d="M0 0 C4 0 4 0 5.640625 1.57421875 C6.17171875 2.27160156 6.7028125 2.96898437 7.25 3.6875 C13.71813248 11.43007384 20.08827726 13.77925474 30 15 C30.495 19.455 30.495 19.455 31 24 C32.98 23.67 34.96 23.34 37 23 C37 23.66 37 24.32 37 25 C34.69 25.33 32.38 25.66 30 26 C29.01 24.02 28.02 22.04 27 20 C27.061875 21.093125 27.12375 22.18625 27.1875 23.3125 C27 27 27 27 25.9375 28.75 C23.12186355 30.56653965 20.09623997 31.7385689 17 33 C15.70366379 34.06645115 15.70366379 34.06645115 15.9375 36.5625 C15.958125 37.366875 15.97875 38.17125 16 39 C16.79792969 39.19335938 17.59585937 39.38671875 18.41796875 39.5859375 C21 41 21 41 21.92578125 44.0390625 C22.05339844 45.22242188 22.18101562 46.40578125 22.3125 47.625 C22.45300781 48.81351562 22.59351563 50.00203125 22.73828125 51.2265625 C22.82464844 52.14179688 22.91101563 53.05703125 23 54 C24.98 54 26.96 54 29 54 C26 56 26 56 24 56 C25.92391649 61.31411494 25.92391649 61.31411494 30 65 C30.7539292 68.42167866 31.0522865 69.79052616 30 73 C21.90450947 81.88576461 5.43781947 87.89821845 -6 91 C-7.32 91 -8.64 91 -10 91 C-9.21388571 86.86710161 -8.23450944 82.79798109 -7.22265625 78.71484375 C-6.87023843 77.28195127 -6.51803187 75.84900681 -6.16601562 74.41601562 C-5.61740653 72.1867276 -5.06754029 69.95778453 -4.51391602 67.72973633 C-1.19357732 54.35138288 1.34761087 41.681378 1.25 27.8125 C1.25773438 26.70197266 1.26546875 25.59144531 1.2734375 24.44726562 C1.25980902 18.68582749 0.9321837 13.43170031 -0.60791016 7.86621094 C-1.1897553 5.09683092 -0.69393883 2.70636143 0 0 Z " fill="#022744" transform="translate(241,253)"/>
<path d="M0 0 C1.4855957 1.85766602 1.4855957 1.85766602 2.67578125 4.25390625 C3.32836914 5.53491211 3.32836914 5.53491211 3.99414062 6.84179688 C4.42919922 7.73962891 4.86425781 8.63746094 5.3125 9.5625 C5.76689453 10.46419922 6.22128906 11.36589844 6.68945312 12.29492188 C7.80913413 14.52249778 8.91161608 16.75701027 10 19 C10.763125 18.34 11.52625 17.68 12.3125 17 C15 15 15 15 18 15 C19.97099517 17.01565954 20.90415694 18.39211402 21.34570312 21.19262695 C21.11987881 29.89285102 20.33671926 38.52923394 19.5 47.1875 C19.35500214 48.72716967 19.21046758 50.26688305 19.06640625 51.80664062 C18.71626952 55.53827871 18.35989415 59.2692888 18 63 C15.72312198 60.1630059 14.16531083 57.42744578 12.73828125 54.0859375 C12.14370117 52.69761719 12.14370117 52.69761719 11.53710938 51.28125 C11.13298828 50.3221875 10.72886719 49.363125 10.3125 48.375 C9.89677734 47.40820312 9.48105469 46.44140625 9.05273438 45.4453125 C6 38.26712592 6 38.26712592 6 36 C-6.54 36 -19.08 36 -32 36 C-32.33 27.09 -32.66 18.18 -33 9 C-29.10760952 7.54578452 -25.21392044 6.09975473 -21.31176758 4.67260742 C-19.98622079 4.18521929 -18.66229392 3.69340109 -17.34008789 3.19702148 C-15.43527921 2.48280777 -13.52514429 1.78491711 -11.61328125 1.08984375 C-10.46641846 0.66566162 -9.31955566 0.24147949 -8.13793945 -0.19555664 C-4.83804159 -1.04151972 -3.15669186 -1.25556461 0 0 Z " fill="#3B7E9A" transform="translate(178,250)"/>
<path d="M0 0 C7.68955878 4.01440201 14.02270401 9.79584701 16.76171875 18.19921875 C18.38394382 26.72706247 18.27222401 35.70650324 13.80078125 43.2890625 C9.06890325 49.59059495 3.30015845 53.26220605 -3.8125 56.4375 C-3.3175 59.9025 -3.3175 59.9025 -2.8125 63.4375 C-5.7825 64.4275 -5.7825 64.4275 -8.8125 65.4375 C-9.1425 62.4675 -9.4725 59.4975 -9.8125 56.4375 C-10.84697266 56.43363281 -10.84697266 56.43363281 -11.90234375 56.4296875 C-21.54272897 56.03296383 -27.15805216 52.48808589 -33.6875 45.5625 C-39.05317263 38.96434108 -40.39281322 32.94179784 -40.16796875 24.47265625 C-39.37840874 17.73102848 -36.71415217 11.20667509 -31.8125 6.4375 C-22.18929207 -0.77990594 -11.90936176 -4.8258805 0 0 Z M-18.8125 5.4375 C-15.8425 5.9325 -15.8425 5.9325 -12.8125 6.4375 C-13.23903807 9.53149259 -13.76177114 12.49007084 -14.8125 15.4375 C-18.06660215 17.57835668 -19.86387109 17.4375 -23.8125 17.4375 C-24.5 15.75 -24.5 15.75 -24.8125 13.4375 C-23.4132781 10.63905619 -22.02458617 8.64958617 -19.8125 6.4375 C-24.06063512 6.92766944 -27.10469485 9.27356724 -29.8125 12.4375 C-33.23820549 18.45875535 -34.85587604 24.54606569 -33.8125 31.4375 C-31.60002783 38.56657699 -27.49175466 43.30503201 -21.75 47.875 C-15.97005115 50.84204041 -8.58160065 50.43100264 -2.44140625 48.8125 C3.90996294 46.03919259 8.51334705 40.71301664 11.625 34.625 C12.87885993 27.51979372 13.29870348 20.70367399 9.58984375 14.2890625 C5.80541378 9.29234995 1.21565233 5.3157077 -4.8125 3.4375 C-7.86849462 3.12376971 -7.86849462 3.12376971 -11 3.1875 C-12.56814453 3.17976562 -12.56814453 3.17976562 -14.16796875 3.171875 C-16.96831521 3.17138309 -16.96831521 3.17138309 -18.8125 5.4375 Z " fill="#C2DEE7" transform="translate(280.8125,211.5625)"/>
<path d="M0 0 C1.875 1.3125 1.875 1.3125 3 3 C3 3.99 3 4.98 3 6 C3.99 6 4.98 6 6 6 C7.45432032 10.1063162 8.18892881 12.98095909 7.5 17.3125 C7.335 18.529375 7.17 19.74625 7 21 C7.66 21.66 8.32 22.32 9 23 C9.46376812 30.30434783 9.46376812 30.30434783 7 34 C6.34 34 5.68 34 5 34 C5.061875 34.928125 5.12375 35.85625 5.1875 36.8125 C5 40 5 40 3.9375 41.875 C0.8930714 43.64273274 -1.5631012 43.36823916 -5 43 C-6.9375 41.6875 -6.9375 41.6875 -8 40 C-8 39.01 -8 38.02 -8 37 C-8.804375 36.7525 -9.60875 36.505 -10.4375 36.25 C-13 35 -13 35 -13.8125 32.875 C-13.874375 32.25625 -13.93625 31.6375 -14 31 C-15.36125 30.9071875 -15.36125 30.9071875 -16.75 30.8125 C-20.79813566 29.80046608 -21.8684706 28.52522169 -24 25 C-24 23.68 -24 22.36 -24 21 C-23.34 20.67 -22.68 20.34 -22 20 C-22.99 19.67 -23.98 19.34 -25 19 C-26.20272819 16.59454362 -26.10071472 15.05003047 -26.0625 12.375 C-26.05347656 11.55773437 -26.04445313 10.74046875 -26.03515625 9.8984375 C-26.02355469 9.27195312 -26.01195312 8.64546875 -26 8 C-23.69 7.34 -21.38 6.68 -19 6 C-18.01 7.98 -17.02 9.96 -16 12 C-15.34 11.67 -14.68 11.34 -14 11 C-14.66 10.34 -15.32 9.68 -16 9 C-16.125 6.375 -16.125 6.375 -16 4 C-5.6899696 -0.47416413 -5.6899696 -0.47416413 0 0 Z " fill="#143957" transform="translate(289,288)"/>
<path d="M0 0 C0.33 0.66 0.66 1.32 1 2 C3.31 2 5.62 2 8 2 C8 5.63 8 9.26 8 13 C8.98742187 12.97679687 9.97484375 12.95359375 10.9921875 12.9296875 C12.27351563 12.91164063 13.55484375 12.89359375 14.875 12.875 C16.78925781 12.84019531 16.78925781 12.84019531 18.7421875 12.8046875 C22 13 22 13 24 15 C24.17517747 17.72485728 24.23149133 20.34659362 24.1953125 23.0703125 C24.1924826 23.86654022 24.18965271 24.66276794 24.18673706 25.48312378 C24.1755264 28.03056763 24.15042062 30.57766211 24.125 33.125 C24.11497133 34.85025535 24.10584528 36.57551619 24.09765625 38.30078125 C24.07558422 42.53398914 24.04104867 46.7669353 24 51 C12.99316151 47.68312443 0.91379988 41.5476722 -7 33 C-8.47445085 28.89211135 -7.69857221 26.17501026 -6.3125 22.125 C-4.63076171 17.00946856 -3.11473256 11.89400134 -1.75 6.6875 C-1.24726563 4.77517578 -1.24726563 4.77517578 -0.734375 2.82421875 C-0.49203125 1.89222656 -0.2496875 0.96023438 0 0 Z " fill="#A8D4E2" transform="translate(143,289)"/>
<path d="M0 0 C0.05794812 4.27077656 0.09357874 8.54145236 0.125 12.8125 C0.14175781 14.02744141 0.15851563 15.24238281 0.17578125 16.49414062 C0.18222656 17.65751953 0.18867188 18.82089844 0.1953125 20.01953125 C0.20578613 21.09307861 0.21625977 22.16662598 0.22705078 23.27270508 C0 26 0 26 -2 29 C-2.67889162 31.27628366 -3.29550927 33.57140463 -3.875 35.875 C-8.82927273 55.12152776 -8.82927273 55.12152776 -12 61 C-13.92653463 59.15525221 -15.84081442 57.30006594 -17.75 55.4375 C-18.28882812 54.92380859 -18.82765625 54.41011719 -19.3828125 53.88085938 C-23.12815902 50.20402529 -26.08195296 46.93137231 -28 42 C-27.60809022 38.67140472 -26.43801539 35.81687707 -25.125 32.75 C-24.61815674 31.49038452 -24.61815674 31.49038452 -24.10107422 30.20532227 C-19.68172141 19.44159061 -14.31372655 6.94288833 -3.8515625 0.72265625 C-2 0 -2 0 0 0 Z " fill="#E8F5F7" transform="translate(146,260)"/>
<path d="M0 0 C1 1 1 1 1.17236328 4.52172852 C1.11097189 9.06097246 0.28052726 13.24742634 -0.7578125 17.65234375 C-0.94144348 18.46209656 -1.12507446 19.27184937 -1.31427002 20.10614014 C-1.90915402 22.71867392 -2.5165298 25.3281001 -3.125 27.9375 C-3.53909265 29.73726686 -3.95266409 31.53715373 -4.36572266 33.3371582 C-5.18676748 36.90643763 -6.01365343 40.47428597 -6.84570312 44.04101562 C-7.85374666 48.3628003 -8.8429767 52.68856773 -9.828125 57.015625 C-10.34259717 59.2398503 -10.85812098 61.46383278 -11.375 63.6875 C-11.60074707 64.68193115 -11.82649414 65.6763623 -12.05908203 66.70092773 C-14.14980553 75.51563726 -14.14980553 75.51563726 -17 79 C-20.625 79.875 -20.625 79.875 -24 80 C-25.71441467 78.28558533 -25.21565439 76.1125056 -25.25390625 73.76953125 C-25.18873514 66.75691287 -23.72047105 60.43936067 -21.9375 53.6875 C-21.2914906 51.14909626 -20.6480502 48.61016569 -20.0078125 46.0703125 C-19.84213272 45.41871658 -19.67645294 44.76712067 -19.50575256 44.09577942 C-18.27756966 39.22696849 -17.17223573 34.33869457 -16.1171875 29.4296875 C-15.96490189 28.72699234 -15.81261627 28.02429718 -15.65571594 27.30030823 C-15.06044665 24.55043524 -14.46551685 21.8007725 -13.89450073 19.04574585 C-13.49960871 17.14399096 -13.08798565 15.24573393 -12.67578125 13.34765625 C-12.3341394 11.72355835 -12.3341394 11.72355835 -11.9855957 10.06665039 C-10.84732187 6.52494674 -9.24092764 3.95694126 -7 1 C-4.51588385 -0.24205807 -2.74800896 -0.14092354 0 0 Z " fill="#F7F9FA" transform="translate(463,198)"/>
<path d="M0 0 C7.75 0.875 7.75 0.875 10 2 C8.58464238 6.51217903 6.82495196 10.7818914 4.83984375 15.06640625 C4.38070587 16.06842323 4.38070587 16.06842323 3.91229248 17.09068298 C2.92318349 19.24910675 1.93032899 21.40578521 0.9375 23.5625 C-4.01049831 34.34423203 -8.88899205 45.13878516 -13.38500977 56.11938477 C-15.78995659 61.89497829 -15.78995659 61.89497829 -18 63 C-20.48284149 51.27178956 -21.15231004 38.8467189 -21.3125 26.875 C-21.32925781 25.63492187 -21.34601563 24.39484375 -21.36328125 23.1171875 C-20.97438386 19.78019696 -20.27457493 18.41260982 -18 16 C-15.04590299 17.37154504 -12.55991624 18.98863724 -10 21 C-9.75507813 20.17242187 -9.51015625 19.34484375 -9.2578125 18.4921875 C-7.80806511 14.46711244 -5.9276949 10.86772286 -3.875 7.125 C-3.50246094 6.43664062 -3.12992188 5.74828125 -2.74609375 5.0390625 C-1.83500474 3.35705202 -0.91809685 1.67819564 0 0 Z " fill="#F8FAFA" transform="translate(232,249)"/>
<path d="M0 0 C1.4855957 1.85766602 1.4855957 1.85766602 2.67578125 4.25390625 C3.32836914 5.53491211 3.32836914 5.53491211 3.99414062 6.84179688 C4.42919922 7.73962891 4.86425781 8.63746094 5.3125 9.5625 C5.9940918 10.91504883 5.9940918 10.91504883 6.68945312 12.29492188 C7.80913413 14.52249778 8.91161608 16.75701027 10 19 C10.763125 18.34 11.52625 17.68 12.3125 17 C15 15 15 15 18 15 C19.97099517 17.01565954 20.90415694 18.39211402 21.34570312 21.19262695 C21.11987881 29.89285102 20.33671926 38.52923394 19.5 47.1875 C19.35500214 48.72716967 19.21046758 50.26688305 19.06640625 51.80664062 C18.71626952 55.53827871 18.35989415 59.2692888 18 63 C15.74989967 60.19211355 14.20180424 57.50140529 12.79296875 54.1953125 C12.37764893 53.23318848 11.9623291 52.27106445 11.53442383 51.27978516 C11.08993896 50.23870605 10.6454541 49.19762695 10.1875 48.125 C6.94779612 40.62623398 3.6453706 33.17053136 0.1640625 25.78125 C-0.15658676 25.10013153 -0.47723602 24.41901306 -0.80760193 23.71725464 C-2.38965769 20.36223249 -3.98043281 17.0115688 -5.5793457 13.66455078 C-6.16110848 12.43528686 -6.7427394 11.20596052 -7.32421875 9.9765625 C-7.84072998 8.89455566 -8.35724121 7.81254883 -8.8894043 6.69775391 C-10 4 -10 4 -10 1 C-6.2165198 -0.83769038 -4.02507607 -1.33196295 0 0 Z " fill="#F5F8F9" transform="translate(178,250)"/>
<path d="M0 0 C8.25 0 16.5 0 25 0 C25 17.16 25 34.32 25 52 C18.25 50.875 18.25 50.875 15 49 C15.00523682 47.91468994 15.01047363 46.82937988 15.01586914 45.71118164 C15.03391836 41.69882018 15.04543171 37.68646233 15.05493164 33.67407227 C15.05997204 31.93480832 15.0668043 30.19554864 15.07543945 28.45629883 C15.08751792 25.96174063 15.09323108 23.46723827 15.09765625 20.97265625 C15.10281754 20.19036148 15.10797882 19.40806671 15.11329651 18.60206604 C15.11349226 16.73432886 15.06199694 14.86670796 15 13 C13.05909174 11.05909174 9.52706098 11.60080565 6.9375 11.4375 C5.64714844 11.35371094 4.35679687 11.26992188 3.02734375 11.18359375 C2.02832031 11.12300781 1.02929688 11.06242187 0 11 C0 7.37 0 3.74 0 0 Z " fill="#EEF9FB" transform="translate(151,291)"/>
<path d="M0 0 C12.87 0 25.74 0 39 0 C39 19.47 39 38.94 39 59 C36.36 58.67 33.72 58.34 31 58 C31 40.51 31 23.02 31 5 C20.44 5 9.88 5 -1 5 C-0.67 3.35 -0.34 1.7 0 0 Z " fill="#052948" transform="translate(145,286)"/>
<path d="M0 0 C6.90029366 0.14839341 11.32285494 1.47999508 16.34765625 6.24609375 C22.01023532 12.39702666 23.81899961 17.24487733 23.6171875 25.59765625 C23.00623097 32.60394812 20.4361624 37.17860138 15.2421875 41.8984375 C9.40637401 46.51336951 3.91101956 47.04077606 -3.40234375 46.84765625 C-10.42984749 45.8169557 -14.83726335 41.6628874 -19.125 36.25 C-22.89249068 31.03830456 -23.31103833 25.65715103 -22.625 19.375 C-21.00985044 12.90467194 -18.44625755 8.4834333 -13.30859375 4.23828125 C-12.75300781 3.95339844 -12.19742187 3.66851562 -11.625 3.375 C-10.635 3.705 -9.645 4.035 -8.625 4.375 C-9.718125 5.014375 -10.81125 5.65375 -11.9375 6.3125 C-16.40115884 9.52019006 -17.66863417 13.07621632 -18.625 18.375 C-19.29551689 24.10744724 -18.98578917 28.49643507 -15.625 33.375 C-11.25208994 37.7789236 -7.76582346 40.49092678 -1.375 40.625 C3.25023367 40.58733523 6.26292159 39.4310392 10.375 37.375 C11.365 37.045 12.355 36.715 13.375 36.375 C14.51045562 34.07965742 14.51045562 34.07965742 15.375 31.375 C15.74625 30.6325 16.1175 29.89 16.5 29.125 C17.95109394 24.56441906 18.3038625 19.94066884 16.65234375 15.37890625 C13.55664404 9.55096956 9.44763649 6.54254511 3.375 4.375 C1.44707923 3.95351125 -0.4915317 3.57823562 -2.4375 3.25 C-3.41332031 3.08242187 -4.38914062 2.91484375 -5.39453125 2.7421875 C-6.13058594 2.62101563 -6.86664063 2.49984375 -7.625 2.375 C-4.98965495 -0.26034505 -3.67340007 0.04649874 0 0 Z " fill="#46A0B9" transform="translate(269.625,214.625)"/>
<path d="M0 0 C2.72985321 2.27487767 4.41092369 3.87825436 4.99609375 7.45703125 C5.11227018 11.90590499 5.19008745 15.17901799 2.3125 18.75 C-1.31577395 22.0407601 -4.3570831 22.64546519 -9.23828125 22.609375 C-13.15429961 21.83619404 -15.86216579 19.18105032 -18.375 16.1875 C-19.58143566 12.56819302 -19.69768559 9.99518995 -19.375 6.1875 C-17.76179279 3.13392921 -16.34439098 0.94916434 -13.625 -1.1875 C-8.37822281 -2.64493811 -4.71876312 -2.53415056 0 0 Z " fill="#082A46" transform="translate(233.375,171.8125)"/>
<path d="M0 0 C3.23777592 1.51096209 5.68434031 3.28991476 8 6 C9.46370668 10.60147308 9.47471761 14.05056478 7.3125 18.375 C3.81105012 22.34961878 2.00108138 24.15780387 -3.375 24.5 C-8.4446815 24.3494154 -10.55877551 22.61328571 -14 19 C-15.86233425 15.27533151 -15.57130829 11.05504687 -15 7 C-11.55804669 0.56560221 -6.96163619 -0.76310243 0 0 Z " fill="#072945" transform="translate(187,170)"/>
<path d="M0 0 C7.39430314 -0.36365425 7.39430314 -0.36365425 10.00390625 1.203125 C13.63619888 7.75549602 8.97929069 18.77893681 7.23046875 25.6171875 C5.93608267 29.17572194 4.70788162 31.36067234 2 34 C-0.359375 34.70703125 -0.359375 34.70703125 -2.75 34.8125 C-3.54921875 34.86019531 -4.3484375 34.90789062 -5.171875 34.95703125 C-5.77515625 34.97121094 -6.3784375 34.98539062 -7 35 C-6.26209611 27.52755549 -4.60192502 20.31420182 -2.9375 13 C-2.51500977 11.12248047 -2.51500977 11.12248047 -2.08398438 9.20703125 C-1.39269604 6.13724235 -0.69794475 3.06828108 0 0 Z " fill="#F6F8F9" transform="translate(513,242)"/>
<path d="M0 0 C3.89912609 0.60408996 6.27947699 2.50783535 9.375 4.875 C13.11052308 7.72662466 16.74116892 10.00249516 21 12 C19.34136495 16.32504836 16.128959 19.09418825 12.875 22.25 C12.31167969 22.80429687 11.74835938 23.35859375 11.16796875 23.9296875 C9.78313972 25.29104485 8.39216796 26.64614859 7 28 C3.66953453 25.18596747 1.80182839 21.45773466 -0.25 17.6875 C-0.62640625 17.03587891 -1.0028125 16.38425781 -1.390625 15.71289062 C-3.20929005 12.37309948 -4.02768456 10.54918437 -3.83203125 6.66796875 C-2.96781028 3.89678132 -1.91392323 2.16356539 0 0 Z " fill="#F6F8F7" transform="translate(183,238)"/>
<path d="M0 0 C1.8515625 0.765625 1.8515625 0.765625 3.1015625 2.453125 C4.64563616 7.21401879 4.09993972 10.67416794 1.8828125 15.0703125 C1.05167225 16.60066598 0.20754178 18.12402507 -0.6484375 19.640625 C-1.07769531 20.424375 -1.50695312 21.208125 -1.94921875 22.015625 C-3.00459481 23.9387547 -4.07106737 25.85475752 -5.1484375 27.765625 C-9.06692643 24.45163933 -12.9370211 21.12897691 -16.5859375 17.515625 C-17.26527344 16.85046875 -17.94460937 16.1853125 -18.64453125 15.5 C-20.1484375 13.765625 -20.1484375 13.765625 -20.1484375 11.765625 C-18.2421875 10.46875 -18.2421875 10.46875 -15.6484375 9.015625 C-11.40837243 6.58329306 -7.66064571 3.93024431 -3.9375 0.76953125 C-2.1484375 -0.234375 -2.1484375 -0.234375 0 0 Z " fill="#AFD7E5" transform="translate(226.1484375,238.234375)"/>
<path d="M0 0 C0.66 0.99 1.32 1.98 2 3 C1.60167969 3.4846875 1.20335937 3.969375 0.79296875 4.46875 C-4.50703378 11.17434931 -7.62912009 17.13215681 -7.28515625 25.8359375 C-6.28799495 33.40343558 -1.80825304 38.77679968 4 43.375 C9.80586588 46.39862381 17.22950487 46.03443779 23.40625 44.33984375 C27.84341231 42.36871973 30.71981721 39.48653889 33.67578125 35.68359375 C35.01086354 33.98618824 36.44726146 32.49809672 38 31 C37.47327573 35.03119644 36.42327642 37.13732125 33.6875 40.125 C33.09324219 40.78757813 32.49898438 41.45015625 31.88671875 42.1328125 C26.96861925 47 26.96861925 47 23 47 C22.67 47.99 22.34 48.98 22 50 C12.87045443 50.59197342 5.57945587 50.53775743 -2 45 C-4.38787798 42.87055037 -6.21783987 40.65096319 -8 38 C-8.61875 37.14148438 -8.61875 37.14148438 -9.25 36.265625 C-13.47240942 29.40420969 -13.11531874 20.73532471 -11.31640625 13.09765625 C-10.63471472 11.03301155 -9.831337 9.00906442 -9 7 C-8.01 7 -7.02 7 -6 7 C-5.67 6.01 -5.34 5.02 -5 4 C-3.37667033 2.61423077 -1.71275535 1.27358732 0 0 Z " fill="#D4EBF1" transform="translate(255,215)"/>
<path d="M0 0 C1.47906892 -0.02689216 2.95827483 -0.04634621 4.4375 -0.0625 C5.26121094 -0.07410156 6.08492187 -0.08570313 6.93359375 -0.09765625 C9 0 9 0 10 1 C11.10342754 10.30420998 11.12794439 19.64584341 11 29 C6.64061801 28.46683817 4.1645469 26.96936968 0.75 24.25 C-0.12140625 23.57453125 -0.9928125 22.8990625 -1.890625 22.203125 C-4.34675617 19.63783244 -4.88575528 18.52600758 -5 15 C-4.2578125 11.73828125 -4.2578125 11.73828125 -3.125 8.3125 C-2.57199219 6.60513672 -2.57199219 6.60513672 -2.0078125 4.86328125 C-1 2 -1 2 0 0 Z " fill="#7DB9CE" transform="translate(140,302)"/>
<path d="M0 0 C2 2 2 2 2 5 C2.66 5.33 3.32 5.66 4 6 C4 6.33 4 6.66 4 7 C4.98742187 6.90460938 5.97484375 6.80921875 6.9921875 6.7109375 C8.27351563 6.60007812 9.55484375 6.48921875 10.875 6.375 C12.15117187 6.25898438 13.42734375 6.14296875 14.7421875 6.0234375 C15.81726563 6.01570313 16.89234375 6.00796875 18 6 C20 8 20 8 20.125 11.125 C20.08375 12.07375 20.0425 13.0225 20 14 C18.30230469 14.50660156 18.30230469 14.50660156 16.5703125 15.0234375 C15.08844078 15.47362638 13.60667541 15.92416543 12.125 16.375 C11.37863281 16.59671875 10.63226563 16.8184375 9.86328125 17.046875 C5.53656848 18.3170988 5.53656848 18.3170988 2 21 C-2.36446995 22.5646213 -5.52024466 23.44933261 -10 22 C-11 21 -11 21 -11.375 18.6875 C-11 16 -11 16 -8.875 13.75 C-5.80927569 11.88390694 -3.54647066 11.32990425 0 11 C0 7.37 0 3.74 0 0 Z " fill="#ADD1DB" transform="translate(267,271)"/>
<path d="M0 0 C1.125 3.75 1.125 3.75 0 6 C-0.6529552 14.15658796 -0.84162569 21.17698294 4 28 C4.70125 29.051875 5.4025 30.10375 6.125 31.1875 C10.52159532 36.03570934 15.98136615 38.57123643 22.41015625 39.484375 C31.24456725 39.83044551 38.24691262 38.3470945 44.875 32.28515625 C50.52735522 26.07571794 51.33283502 20.34985924 51.625 12.1875 C51.66367187 11.30384766 51.70234375 10.42019531 51.7421875 9.50976562 C51.83600784 7.34017028 51.91907326 5.17011453 52 3 C55.51236888 9.44534174 55.13570129 17.99599265 53.16015625 24.9609375 C49.00924632 34.04542051 41.89245405 39.03015444 33 43 C33.495 46.465 33.495 46.465 34 50 C32.02 50.66 30.04 51.32 28 52 C27.67 49.03 27.34 46.06 27 43 C25.96552734 42.99613281 25.96552734 42.99613281 24.91015625 42.9921875 C15.26977103 42.59546383 9.65444784 39.05058589 3.125 32.125 C-2.30856949 25.44334842 -3.5001806 19.48012832 -3.3046875 10.921875 C-2.8798959 6.84823245 -1.71134931 3.70792351 0 0 Z " fill="#407D99" transform="translate(244,225)"/>
<path d="M0 0 C7.75 0.875 7.75 0.875 10 2 C8.45173401 6.95757898 6.48219062 11.63810401 4.375 16.375 C4.05015625 17.11105469 3.7253125 17.84710938 3.390625 18.60546875 C2.59615497 20.40470969 1.79841229 22.20250496 1 24 C0.67 23.34 0.34 22.68 0 22 C-1.64551962 21.28272222 -3.31422289 20.61674772 -5 20 C-5.66 19.67 -6.32 19.34 -7 19 C-7.66 21.31 -8.32 23.62 -9 26 C-13.23429756 24.68938409 -17.07407404 23.05643741 -21 21 C-20.01 19.35 -19.02 17.7 -18 16 C-15.04590299 17.37154504 -12.55991624 18.98863724 -10 21 C-9.75507813 20.17242187 -9.51015625 19.34484375 -9.2578125 18.4921875 C-7.80806511 14.46711244 -5.9276949 10.86772286 -3.875 7.125 C-3.50246094 6.43664062 -3.12992188 5.74828125 -2.74609375 5.0390625 C-1.83500474 3.35705202 -0.91809685 1.67819564 0 0 Z " fill="#AED8E6" transform="translate(232,249)"/>
<path d="M0 0 C6.0546875 -0.1953125 6.0546875 -0.1953125 8 0 C8.66 0.66 9.32 1.32 10 2 C9.56338533 9.85906412 7.99380006 18.29722846 4.25 25.25 C1.12833075 27.67796497 -1.15670969 27.36954715 -5 27 C-4.41117785 17.72605107 -2.24113144 8.9853735 0 0 Z " fill="#F5F8F9" transform="translate(524,196)"/>
<path d="M0 0 C1.65 0 3.3 0 5 0 C5 17.16 5 34.32 5 52 C3.35 51.67 1.7 51.34 0 51 C0 34.17 0 17.34 0 0 Z " fill="#A6D1E1" transform="translate(171,291)"/>
<path d="M0 0 C0.6290625 0.16242188 1.258125 0.32484375 1.90625 0.4921875 C6.11842114 1.18357923 10.2392084 1.14457485 14.5 1.125 C15.34175781 1.12886719 16.18351562 1.13273438 17.05078125 1.13671875 C21.16268987 1.1302433 24.99018972 1.03531987 29 0 C28.36079057 2.00894394 27.68960962 4.00779443 27 6 C26.773125 6.70125 26.54625 7.4025 26.3125 8.125 C24.17166554 11.18333494 21.31892005 12.34053997 18 14 C17.34 14 16.68 14 16 14 C15.67 14.66 15.34 15.32 15 16 C15 15.34 15 14.68 15 14 C14.29359375 13.90589844 13.5871875 13.81179687 12.859375 13.71484375 C9.48383723 12.87095931 7.1624868 11.45561642 4.25 9.5625 C3.28578125 8.94503906 2.3215625 8.32757813 1.328125 7.69140625 C-1 6 -1 6 -2 4 C-0.68 4 0.64 4 2 4 C1.34 2.68 0.68 1.36 0 0 Z " fill="#0D2D4B" transform="translate(190,236)"/>
<path d="M0 0 C7.75 -0.125 7.75 -0.125 10 1 C10.45502142 8.12866887 8.75213134 13.82020608 5.3125 20.0625 C1.86394281 22.9518317 -0.59399217 22.36716732 -5 22 C-4.54537897 19.64506308 -4.086405 17.29110915 -3.625 14.9375 C-3.49867188 14.28072266 -3.37234375 13.62394531 -3.2421875 12.94726562 C-2.37615493 8.55215035 -1.28373447 4.29213829 0 0 Z " fill="#F4F7F8" transform="translate(949,200)"/>
<path d="M0 0 C0.66 0.33 1.32 0.66 2 1 C-10.86956522 16.12173913 -10.86956522 16.12173913 -19 21 C-24.63411839 18.64273667 -28.65858619 13.99759284 -32 9 C-32.47504222 5.77797448 -31.99757787 4.16877675 -31 1 C-29.68 1 -28.36 1 -27 1 C-26.938125 1.61875 -26.87625 2.2375 -26.8125 2.875 C-26.544375 3.57625 -26.27625 4.2775 -26 5 C-24.824375 5.4640625 -24.824375 5.4640625 -23.625 5.9375 C-21 7 -21 7 -19.625 9.625 C-19.08875 10.40875 -18.5525 11.1925 -18 12 C-14.45769191 12.58342353 -14.45769191 12.58342353 -11 12 C-8.69337401 10.11340125 -8.69337401 10.11340125 -8.6875 7 C-8.460625 6.01 -8.23375 5.02 -8 4 C-5.625 2.75 -5.625 2.75 -3 2 C-2.01 1.34 -1.02 0.68 0 0 Z " fill="#C0E2EE" transform="translate(302,318)"/>
<path d="M0 0 C14.03814304 -0.56235885 14.03814304 -0.56235885 19 3 C20.0209375 4.051875 20.0209375 4.051875 21.0625 5.125 C22.87860949 7.22563476 22.87860949 7.22563476 25.625 7.5 C26.40875 7.665 27.1925 7.83 28 8 C30.87280982 12.42678966 30.36794974 17.15266073 30.375 22.25 C30.39949219 23.16652344 30.42398437 24.08304688 30.44921875 25.02734375 C30.48082955 32.41373316 28.91519816 37.61270497 24.0703125 43.2421875 C20.2058585 46.48584568 17.0456811 48.86472175 12 50 C12 49.34 12 48.68 12 48 C13.03125 47.484375 14.0625 46.96875 15.125 46.4375 C19.80448932 43.75535368 24.1481104 40.03582475 25.64453125 34.703125 C26.65700927 27.00384161 27.49569414 18.5536116 23.3359375 11.6796875 C19.11161263 6.36840184 14.30439989 2.56462036 7.46875 1.66796875 C4.98055922 1.40587 2.49504627 1.1841005 0 1 C0 0.67 0 0.34 0 0 Z " fill="#A3CFE2" transform="translate(266,214)"/>
<path d="M0 0 C4.40396974 4.40396974 4.12907511 11.66363576 4.1953125 17.56640625 C4.18217384 19.89851826 4.15855263 22.23059235 4.125 24.5625 C4.11597656 25.76197266 4.10695312 26.96144531 4.09765625 28.19726562 C4.07427412 31.13172309 4.0415028 34.06575234 4 37 C1.44143038 33.16214558 0.85833142 29.47399126 -0.12109375 25.0078125 C-1.02478399 21.9151837 -2.15536627 19.63249519 -4 17 C-4.66 16.67 -5.32 16.34 -6 16 C-4.25192871 10.53262809 -2.34205919 5.24175152 0 0 Z " fill="#194F70" transform="translate(239,257)"/>
<path d="M0 0 C0.12375 0.598125 0.2475 1.19625 0.375 1.8125 C0.95475985 4.26231348 0.95475985 4.26231348 3 7 C3.265625 8.9375 3.265625 8.9375 3.25 11 C3.25515625 11.680625 3.2603125 12.36125 3.265625 13.0625 C3 15 3 15 1 18 C0.34 18 -0.32 18 -1 18 C-0.938125 18.928125 -0.87625 19.85625 -0.8125 20.8125 C-1 24 -1 24 -2.0625 25.875 C-5.06732099 27.61973477 -7.60810131 27.30835443 -11 27 C-11.66 26.34 -12.32 25.68 -13 25 C-12.625 21.375 -12.625 21.375 -12 18 C-11.30132812 17.80664062 -10.60265625 17.61328125 -9.8828125 17.4140625 C-8.51769531 17.02347656 -8.51769531 17.02347656 -7.125 16.625 C-6.22007812 16.36976563 -5.31515625 16.11453125 -4.3828125 15.8515625 C-1.85430274 15.1395685 -1.85430274 15.1395685 0 13 C0 11.68 0 10.36 0 9 C-1.92022703 7.22590192 -1.92022703 7.22590192 -4 6 C-2.84826645 3.53199953 -1.95216435 1.95216435 0 0 Z " fill="#123756" transform="translate(295,304)"/>
<path d="M0 0 C-3 2 -3 2 -6.625 3.6875 C-18.5642589 9.63518228 -25.91625981 18.83739139 -31 31 C-31.83277638 33.66661039 -32.44135979 36.25758444 -33 39 C-33.33 39 -33.66 39 -34 39 C-34.93853825 29.57290467 -32.52593102 21.92797446 -27.015625 14.2265625 C-19.67958745 5.56379476 -11.54406462 -0.2623651 0 0 Z " fill="#B8DEEA" transform="translate(199,142)"/>
<path d="M0 0 C1.875 1.1875 1.875 1.1875 3 3 C2.6875 5.6875 2.6875 5.6875 2 8 C-8.74766355 11.79750779 -8.74766355 11.79750779 -13 12 C-14.9375 10.875 -14.9375 10.875 -16 9 C-16.125 6.5 -16.125 6.5 -15 4 C-10.19459039 1.50830613 -5.46835932 -0.54683593 0 0 Z " fill="#E7F0F2" transform="translate(291,299)"/>
<path d="M0 0 C0.99 0.66 1.98 1.32 3 2 C2.74415412 5.15543251 2.44836094 6.59502883 0.0625 8.75 C-4.13208721 10.46207641 -8.45556045 11.35431224 -13 11 C-14.82421875 9.67578125 -14.82421875 9.67578125 -16 8 C-15.6875 5.3125 -15.6875 5.3125 -15 3 C-5.28046422 -0.62862669 -5.28046422 -0.62862669 0 0 Z " fill="#EFF6F7" transform="translate(293,311)"/>
<path d="M0 0 C1.9375 1.25 1.9375 1.25 3 3 C3 5 3 5 2 7 C-2.30041334 10.87037201 -8.41364448 11.18891057 -14 11 C-16 9 -16 9 -16.125 6.375 C-16.08375 5.59125 -16.0425 4.8075 -16 4 C-5.6899696 -0.47416413 -5.6899696 -0.47416413 0 0 Z " fill="#EEF4F5" transform="translate(289,288)"/>
<path d="M0 0 C0.495 1.485 0.495 1.485 1 3 C-1.79862207 8.35388569 -6.04299749 12.55961633 -11 16 C-11.99 16 -12.98 16 -14 16 C-14.33 16.99 -14.66 17.98 -15 19 C-17.22889496 19.05428973 -19.45817471 19.09292338 -21.6875 19.125 C-22.92886719 19.14820313 -24.17023438 19.17140625 -25.44921875 19.1953125 C-28.81237857 19.01032021 -30.9985587 18.45767895 -34 17 C-33.34 16.34 -32.68 15.68 -32 15 C-32.55429687 14.62488281 -33.10859375 14.24976563 -33.6796875 13.86328125 C-40.87521968 8.78031634 -40.87521968 8.78031634 -42 4 C-41.34 4.721875 -40.68 5.44375 -40 6.1875 C-34.57788471 11.45900098 -30.27416738 14.31055939 -22.5 14.5625 C-15.81788315 14.26895036 -11.0661035 13.01808846 -6.25390625 8.28125 C-3.92439684 5.64449115 -1.95282727 2.92924091 0 0 Z " fill="#BDE0ED" transform="translate(292,246)"/>
<path d="M0 0 C2.44064587 5.64399358 2.19289099 10.97751478 2 17 C-2.057041 16.46960703 -3.94844566 14.42356448 -6.75 11.5625 C-7.94882813 10.35787109 -7.94882813 10.35787109 -9.171875 9.12890625 C-11 7 -11 7 -11 5 C-9.54462432 4.16151196 -8.08559627 3.32936066 -6.625 2.5 C-5.81289062 2.0359375 -5.00078125 1.571875 -4.1640625 1.09375 C-2 0 -2 0 0 0 Z " fill="#EBF3F4" transform="translate(217,245)"/>
<path d="M0 0 C0.6290625 0.16242188 1.258125 0.32484375 1.90625 0.4921875 C6.11842114 1.18357923 10.2392084 1.14457485 14.5 1.125 C15.34175781 1.12886719 16.18351562 1.13273438 17.05078125 1.13671875 C21.16268987 1.1302433 24.99018972 1.03531987 29 0 C27.80454311 3.7191992 25.53309486 5.45164562 22.1171875 7.23046875 C17.1257963 9.0446829 12.32114783 8.91175522 7.39453125 6.9765625 C1.2511641 3.75349229 1.2511641 3.75349229 0 0 Z " fill="#C0DAE5" transform="translate(190,236)"/>
<path d="M0 0 C0.33 0.66 0.66 1.32 1 2 C3.31 2 5.62 2 8 2 C8 10.58 8 19.16 8 28 C7.67 28 7.34 28 7 28 C6.67 23.38 6.34 18.76 6 14 C3.03 13.67 0.06 13.34 -3 13 C-2.01 8.71 -1.02 4.42 0 0 Z " fill="#99C9DA" transform="translate(143,289)"/>
<path d="M0 0 C0 8.91 0 17.82 0 27 C-5 22 -5 22 -5.61523438 19.84350586 C-5.60814453 19.14104736 -5.60105469 18.43858887 -5.59375 17.71484375 C-5.59117187 16.93689453 -5.58859375 16.15894531 -5.5859375 15.35742188 C-5.55757812 14.55884766 -5.52921875 13.76027344 -5.5 12.9375 C-5.50257813 12.13505859 -5.50515625 11.33261719 -5.5078125 10.50585938 C-5.44878549 6.9494821 -5.32689408 4.59476562 -3.59375 1.44140625 C-2 0 -2 0 0 0 Z " fill="#EBF2F4" transform="translate(152,172)"/>
<path d="M0 0 C3 1 3 1 4.16015625 2.53515625 C5.38728799 6.13664523 5.40858008 9.67469653 5.4375 13.4375 C5.47037109 14.18837891 5.50324219 14.93925781 5.53710938 15.71289062 C5.54419922 16.44572266 5.55128906 17.17855469 5.55859375 17.93359375 C5.57204834 18.59415771 5.58550293 19.25472168 5.59936523 19.93530273 C5 22 5 22 0 27 C0 18.09 0 9.18 0 0 Z " fill="#EFF5F6" transform="translate(257,172)"/>
<path d="M0 0 C0.33 0 0.66 0 1 0 C1 17.16 1 34.32 1 52 C-0.32 52 -1.64 52 -3 52 C-3.05791844 48.87507749 -3.09356746 45.75029234 -3.125 42.625 C-3.14175781 41.73554688 -3.15851563 40.84609375 -3.17578125 39.9296875 C-3.18222656 39.07890625 -3.18867188 38.228125 -3.1953125 37.3515625 C-3.20578613 36.56604004 -3.21625977 35.78051758 -3.22705078 34.97119141 C-3 33 -3 33 -1 31 C-0.62653332 27.79461597 -0.62653332 27.79461597 -0.5859375 24.0234375 C-0.56657135 23.33819 -0.5472052 22.6529425 -0.5272522 21.94692993 C-0.46743169 19.75641356 -0.42106244 17.5658447 -0.375 15.375 C-0.33682237 13.89060198 -0.29777076 12.40622616 -0.2578125 10.921875 C-0.16172916 7.28145315 -0.07770718 3.64086564 0 0 Z " fill="#89BCD2" transform="translate(175,291)"/>
<path d="M0 0 C3.51236888 6.44534174 3.13570129 14.99599265 1.16015625 21.9609375 C-1.91214645 28.68483231 -6.68594838 33.16156081 -12.79296875 37.1796875 C-15.98223048 38.36507682 -18.86368065 38.18770962 -22.25 38.125 C-24.14492188 38.09792969 -24.14492188 38.09792969 -26.078125 38.0703125 C-27.52445312 38.03550781 -27.52445312 38.03550781 -29 38 C-29 37.67 -29 37.34 -29 37 C-28.154375 36.91363281 -27.30875 36.82726562 -26.4375 36.73828125 C-18.10635795 35.7063557 -11.92259041 34.40431204 -6.21875 28 C-2.78610607 23.59585307 -0.94926346 20.20575088 -0.68359375 14.55078125 C-0.64169922 13.70322266 -0.59980469 12.85566406 -0.55664062 11.98242188 C-0.51732422 11.10134766 -0.47800781 10.22027344 -0.4375 9.3125 C-0.39431641 8.41982422 -0.35113281 7.52714844 -0.30664062 6.60742188 C-0.20064647 4.40509892 -0.09857949 2.20266527 0 0 Z " fill="#4E90B1" transform="translate(296,228)"/>
<path d="M0 0 C0 2.31 0 4.62 0 7 C-8.261959 10.62870159 -8.261959 10.62870159 -13 9 C-13.25 6.6875 -13.25 6.6875 -13 4 C-9.1524397 0.1524397 -5.23054837 -0.14529301 0 0 Z " fill="#F7FBFA" transform="translate(270,282)"/>
<path d="M0 0 C1.33333333 2.66666667 2.66666667 5.33333333 4 8 C3.67 8.99 3.34 9.98 3 11 C1.52168779 11.19412181 0.04230684 11.38012131 -1.4375 11.5625 C-2.26121094 11.66691406 -3.08492188 11.77132813 -3.93359375 11.87890625 C-4.61550781 11.91886719 -5.29742187 11.95882813 -6 12 C-7 11 -7 11 -7.09765625 8.93359375 C-7.08605469 8.10988281 -7.07445312 7.28617187 -7.0625 6.4375 C-7.05347656 5.61121094 -7.04445313 4.78492188 -7.03515625 3.93359375 C-7.02355469 3.29550781 -7.01195312 2.65742188 -7 2 C-2.25 0 -2.25 0 0 0 Z " fill="#9AC7D7" transform="translate(270,294)"/>
<path d="M0 0 C0 1.98 0 3.96 0 6 C-1.6232687 6.6708712 -3.24867578 7.33657029 -4.875 8 C-5.77992188 8.37125 -6.68484375 8.7425 -7.6171875 9.125 C-10 10 -10 10 -12 10 C-13.4606285 7.35261084 -14 6.10551666 -14 3 C-9.07015675 0.96006486 -5.42039575 -0.40652968 0 0 Z " fill="#EDF4F5" transform="translate(285,277)"/>
<path d="M0 0 C0 0.99 0 1.98 0 3 C-2.97 3.99 -5.94 4.98 -9 6 C-9 7.65 -9 9.3 -9 11 C-7.02 11.66 -5.04 12.32 -3 13 C-3 13.33 -3 13.66 -3 14 C-5.31 14.33 -7.62 14.66 -10 15 C-13 11.375 -13 11.375 -13 8 C-14.98 8.66 -16.96 9.32 -19 10 C-19.33 11.65 -19.66 13.3 -20 15 C-20.33 15 -20.66 15 -21 15 C-21 12.36 -21 9.72 -21 7 C-19.10031392 6.28761772 -17.20060597 5.57529371 -15.30078125 4.86328125 C-13.7977462 4.29932413 -12.29512306 3.73426763 -10.79296875 3.16796875 C-2.38146552 0 -2.38146552 0 0 0 Z " fill="#1D425E" transform="translate(283,286)"/>
<path d="M0 0 C0.66 0.99 1.32 1.98 2 3 C1.57847656 3.55429688 1.15695312 4.10859375 0.72265625 4.6796875 C0.17480469 5.40414062 -0.37304688 6.12859375 -0.9375 6.875 C-1.48277344 7.59429687 -2.02804688 8.31359375 -2.58984375 9.0546875 C-4.03964624 10.94357079 -4.03964624 10.94357079 -5 13 C-5.66 13 -6.32 13 -7 13 C-7.12117187 13.92683594 -7.24234375 14.85367188 -7.3671875 15.80859375 C-7.61855469 17.60490234 -7.61855469 17.60490234 -7.875 19.4375 C-8.03742188 20.63246094 -8.19984375 21.82742187 -8.3671875 23.05859375 C-8.68042969 24.51458984 -8.68042969 24.51458984 -9 26 C-9.66 26.33 -10.32 26.66 -11 27 C-11.3690205 13.3667426 -11.3690205 13.3667426 -9 7 C-8.01 7 -7.02 7 -6 7 C-5.67 6.01 -5.34 5.02 -5 4 C-3.37667033 2.61423077 -1.71275535 1.27358732 0 0 Z " fill="#F5FAFA" transform="translate(255,215)"/>
<path d="M0 0 C0.99 0.33 1.98 0.66 3 1 C1.906875 1.639375 0.81375 2.27875 -0.3125 2.9375 C-4.77615884 6.14519006 -6.04363417 9.70121632 -7 15 C-7.68518215 20.85782487 -7.13457714 24.85929348 -4 30 C-3.67 30.66 -3.34 31.32 -3 32 C-4.65 32 -6.3 32 -8 32 C-11.25008058 25.63525886 -12.12072028 20.41617159 -10.34375 13.4140625 C-8.35396835 7.70201691 -5.55685086 2.84933652 0 0 Z " fill="#58ADCA" transform="translate(258,218)"/>
<path d="M0 0 C1.65 1.32 3.3 2.64 5 4 C4.01 4 3.02 4 2 4 C1.75507813 4.82757813 1.51015625 5.65515625 1.2578125 6.5078125 C-0.19193489 10.53288756 -2.0723051 14.13227714 -4.125 17.875 C-4.49753906 18.56335938 -4.87007812 19.25171875 -5.25390625 19.9609375 C-6.16499526 21.64294798 -7.08190315 23.32180436 -8 25 C-11.32759923 23.44805246 -13.48580485 21.69378051 -16 19 C-15.01 18.34 -14.02 17.68 -13 17 C-11.68 17.99 -10.36 18.98 -9 20 C-7.68253667 17.41909233 -6.37090383 14.83549542 -5.0625 12.25 C-4.68931641 11.52039063 -4.31613281 10.79078125 -3.93164062 10.0390625 C-3.57392578 9.33007812 -3.21621094 8.62109375 -2.84765625 7.890625 C-2.51773682 7.24125977 -2.18781738 6.59189453 -1.84790039 5.92285156 C-0.98547884 3.96706921 -0.45625821 2.08459306 0 0 Z " fill="#133856" transform="translate(230,245)"/>
<path d="M0 0 C1.125 3.75 1.125 3.75 0 6 C-0.83325968 16.40891601 0.06278931 23.21740577 6.5625 31.3125 C8.3336164 33.26526936 10.08700908 35.18769281 12 37 C6.69788787 36.35317876 4.84562917 34.2477516 1.58203125 30.23046875 C-3.29640441 23.35247675 -3.86530995 16.29810055 -3 8 C-2.23286423 5.12544526 -1.252737 2.7142635 0 0 Z " fill="#659BB0" transform="translate(244,225)"/>
<path d="M0 0 C2.3125 2 2.3125 2 4 4 C3.34 5.65 2.68 7.3 2 9 C-0.8125 9.25 -0.8125 9.25 -4 9 C-5.875 7.25 -5.875 7.25 -7 5 C-7 3.68 -7 2.36 -7 1 C-4.4086487 -0.29567565 -2.87704151 -0.34250494 0 0 Z " fill="#95C2D5" transform="translate(272,308)"/>
<path d="M0 0 C0.33 0 0.66 0 1 0 C1.49698261 5.96379138 0.4626059 10.06723741 -3 15 C-7.08079438 19.42809603 -11.00682244 22.65153505 -17 24 C-17 23.34 -17 22.68 -17 22 C-15.96875 21.484375 -14.9375 20.96875 -13.875 20.4375 C-8.94982532 17.61453403 -4.82403689 13.78904794 -3.1875 8.25 C-3.125625 7.5075 -3.06375 6.765 -3 6 C-2 3 -2 3 0 0 Z " fill="#9CCEDF" transform="translate(295,240)"/>
<path d="M0 0 C1.6875 2.5 1.6875 2.5 3 5 C1.37750059 5.83819158 -0.24808497 6.6704116 -1.875 7.5 C-3.23238281 8.19609375 -3.23238281 8.19609375 -4.6171875 8.90625 C-7 10 -7 10 -9 10 C-9.33 7.36 -9.66 4.72 -10 2 C-8.515 2.99 -8.515 2.99 -7 4 C-6.401875 3.34 -5.80375 2.68 -5.1875 2 C-3 0 -3 0 0 0 Z " fill="#ADD8E6" transform="translate(196,265)"/>
<path d="M0 0 C0.33 0.99 0.66 1.98 1 3 C-1.87521246 8.50040645 -6.93269633 14.50417344 -12.890625 16.6953125 C-15.53360304 17.07707599 -18.08034853 17.09428157 -20.75 17.0625 C-21.73484375 17.05347656 -22.7196875 17.04445313 -23.734375 17.03515625 C-24.48203125 17.02355469 -25.2296875 17.01195312 -26 17 C-26 16.67 -26 16.34 -26 16 C-25.3709375 15.90203125 -24.741875 15.8040625 -24.09375 15.703125 C-14.2638721 13.98585717 -7.95040941 11.16760017 -2 3 C-1.34 2.01 -0.68 1.02 0 0 Z " fill="#E0F2F6" transform="translate(292,246)"/>
<path d="M0 0 C14.82913254 -0.59404537 14.82913254 -0.59404537 20.8359375 4.58203125 C27.11863173 10.46724891 27.11863173 10.46724891 28 15 C27.01 16.485 27.01 16.485 26 18 C25.484375 16.80375 24.96875 15.6075 24.4375 14.375 C21.73546917 8.97093833 17.89557083 5.64343209 12.6875 2.6875 C8.51556153 1.62025993 4.28661468 1.3162939 0 1 C0 0.67 0 0.34 0 0 Z " fill="#81BBD5" transform="translate(266,214)"/>
<path d="M0 0 C2.29141286 -0.05384521 4.58318188 -0.09272087 6.875 -0.125 C8.78925781 -0.15980469 8.78925781 -0.15980469 10.7421875 -0.1953125 C14 0 14 0 16 2 C16.17517747 4.72485728 16.23149133 7.34659362 16.1953125 10.0703125 C16.1924826 10.86654022 16.18965271 11.66276794 16.18673706 12.48312378 C16.1755264 15.03056763 16.15042062 17.57766211 16.125 20.125 C16.11497133 21.85025535 16.10584528 23.57551619 16.09765625 25.30078125 C16.07558422 29.53398914 16.04104867 33.7669353 16 38 C15.34 37.67 14.68 37.34 14 37 C14 25.78 14 14.56 14 3 C10.20211302 1.87873219 10.20211302 1.87873219 7 2 C4.99690671 1.68578929 2.99628664 1.3548954 1 1 C0.67 1.66 0.34 2.32 0 3 C0 2.01 0 1.02 0 0 Z " fill="#C7E5EE" transform="translate(151,302)"/>
<path d="M0 0 C0.66 0.33 1.32 0.66 2 1 C1.74415412 4.15543251 1.44836094 5.59502883 -0.9375 7.75 C-5.13208721 9.46207641 -9.45556045 10.35431224 -14 10 C-15.82421875 8.67578125 -15.82421875 8.67578125 -17 7 C-16.6875 4.3125 -16.6875 4.3125 -16 2 C-14 5 -14 5 -13 7 C-11.20496816 6.79888439 -9.4137926 6.5631149 -7.625 6.3125 C-6.62726563 6.18488281 -5.62953125 6.05726563 -4.6015625 5.92578125 C-1.75581595 5.24489984 -1.75581595 5.24489984 -0.6484375 2.41796875 C-0.43445313 1.62003906 -0.22046875 0.82210938 0 0 Z " fill="#91BBCB" transform="translate(294,312)"/>
<path d="M0 0 C0 0.99 0 1.98 0 3 C-1.6796875 4.421875 -1.6796875 4.421875 -3.875 5.75 C-4.59429687 6.19859375 -5.31359375 6.6471875 -6.0546875 7.109375 C-7.01761719 7.55023438 -7.01761719 7.55023438 -8 8 C-10 7 -10 7 -11.875 5.5625 C-13.85994556 4.1029812 -15.78963018 3.06819127 -18 2 C-17.03578125 1.93941406 -16.0715625 1.87882813 -15.078125 1.81640625 C-13.81484375 1.73261719 -12.5515625 1.64882812 -11.25 1.5625 C-9.99703125 1.48128906 -8.7440625 1.40007812 -7.453125 1.31640625 C-4.81682447 1.07484478 -2.51962706 0.75716066 0 0 Z " fill="#6496AE" transform="translate(218,236)"/>
<path d="M0 0 C2.96325287 3.62694673 5.02863289 7.61965388 7.1875 11.75 C7.55552734 12.44738281 7.92355469 13.14476562 8.30273438 13.86328125 C9.20490847 15.57389707 10.10287712 17.2867297 11 19 C10.01 19.66 9.02 20.32 8 21 C4.7 14.73 1.4 8.46 -2 2 C-1.34 1.34 -0.68 0.68 0 0 Z " fill="#213F57" transform="translate(179,248)"/>
<path d="M0 0 C0.66 0.33 1.32 0.66 2 1 C1.71446968 3.76012646 1.20978476 4.81119372 -0.875 6.6875 C-5.40029412 8.58812353 -10.0941682 9.16589769 -15 9 C-17 7 -17 7 -17.125 4.375 C-17.08375 3.59125 -17.0425 2.8075 -17 2 C-16.34 1.67 -15.68 1.34 -15 1 C-14.34 2.65 -13.68 4.3 -13 6 C-8.73052871 5.49770926 -4.83163192 5.02851102 -1 3 C-0.67 2.01 -0.34 1.02 0 0 Z " fill="#98C1D1" transform="translate(290,290)"/>
<path d="M0 0 C8.17329917 0.19680749 14.48900446 2.14866999 21 7 C20.67 8.32 20.34 9.64 20 11 C18.60026042 9.76302083 17.20052083 8.52604167 15.80078125 7.2890625 C11.95229963 4.53418412 7.79034922 3.6513842 3.1875 2.875 C2.21167969 2.70742187 1.23585938 2.53984375 0.23046875 2.3671875 C-0.50558594 2.24601563 -1.24164063 2.12484375 -2 2 C-1.34 1.34 -0.68 0.68 0 0 Z " fill="#5CB8D4" transform="translate(264,215)"/>
<path d="M0 0 C2.5625 -0.25 2.5625 -0.25 5 0 C6 1 6 1 6.0625 4.0625 C6.041875 5.031875 6.02125 6.00125 6 7 C4.02 7.33 2.04 7.66 0 8 C-1.125 5.6875 -1.125 5.6875 -2 3 C-1.34 2.01 -0.68 1.02 0 0 Z " fill="#F0FBFA" transform="translate(257,222)"/>
<path d="M0 0 C2 2 2 2 2.125 5.125 C2.08375 6.07375 2.0425 7.0225 2 8 C3.65 8.33 5.3 8.66 7 9 C6.67 10.98 6.34 12.96 6 15 C5.67 14.01 5.34 13.02 5 12 C4.175 11.690625 3.35 11.38125 2.5 11.0625 C1.675 10.711875 0.85 10.36125 0 10 C-0.8125 7.875 -0.8125 7.875 -1 6 C-3.97 5.505 -3.97 5.505 -7 5 C-7 4.67 -7 4.34 -7 4 C-5.35 4 -3.7 4 -2 4 C-1.34 2.68 -0.68 1.36 0 0 Z " fill="#1D415C" transform="translate(276,313)"/>
<path d="M0 0 C7.22100688 -0.47786075 13.06191235 -0.4754429 19 4 C22.81463537 7.48131771 25.58627812 10.4554383 26.9375 15.5 C26.958125 16.325 26.97875 17.15 27 18 C24.98369586 15.56652949 23.16742431 13.33484862 21.75 10.5 C18.49015756 5.84308223 14.30430644 3.54716701 8.80859375 2.2421875 C5.87592996 1.75052486 2.95488877 1.32996258 0 1 C0 0.67 0 0.34 0 0 Z " fill="#428DAC" transform="translate(265,215)"/>
<path d="M0 0 C0.33 0.66 0.66 1.32 1 2 C0.01 2.66 -0.98 3.32 -2 4 C-1.34 6.31 -0.68 8.62 0 11 C-0.99 11 -1.98 11 -3 11 C-3.33 11.99 -3.66 12.98 -4 14 C-4.33 13.34 -4.66 12.68 -5 12 C-5.66 11.67 -6.32 11.34 -7 11 C-6.34 11 -5.68 11 -5 11 C-5.33 8.69 -5.66 6.38 -6 4 C-6.99 3.67 -7.98 3.34 -9 3 C-6.03 2.01 -3.06 1.02 0 0 Z " fill="#082D4C" transform="translate(283,264)"/>
<path d="M0 0 C0.33 0 0.66 0 1 0 C1.19422663 4.24957119 1.37260542 8.49944294 1.53710938 12.75024414 C1.59506271 14.19247724 1.65714344 15.63455123 1.72363281 17.07641602 C2.08641245 25.0053497 2.25676789 32.29081199 0 40 C-0.33 40 -0.66 40 -1 40 C-0.67 26.8 -0.34 13.6 0 0 Z " fill="#A7C1CC" transform="translate(768,194)"/>
<path d="M0 0 C0.625 1.875 0.625 1.875 1 4 C-1.40672398 6.40672398 -3.11378549 6.79132175 -6.375 7.6875 C-7.33148438 7.95949219 -8.28796875 8.23148437 -9.2734375 8.51171875 C-12.01150477 9.00206031 -13.44192123 9.01985079 -16 8 C-16.66 7.34 -17.32 6.68 -18 6 C-17.625 3.875 -17.625 3.875 -17 2 C-16.67 3.32 -16.34 4.64 -16 6 C-10.72 5.01 -5.44 4.02 0 3 C0 2.01 0 1.02 0 0 Z " fill="#98C2D4" transform="translate(293,302)"/>
<path d="M0 0 C0.66 0.99 1.32 1.98 2 3 C1.04367001 4.29315061 0.08486149 5.58446853 -0.875 6.875 C-1.40867188 7.59429687 -1.94234375 8.31359375 -2.4921875 9.0546875 C-4 11 -4 11 -6 13 C-6 11.68 -6 10.36 -6 9 C-7.32 9.33 -8.64 9.66 -10 10 C-9.67 9.01 -9.34 8.02 -9 7 C-8.01 7 -7.02 7 -6 7 C-5.67 6.01 -5.34 5.02 -5 4 C-3.37667033 2.61423077 -1.71275535 1.27358732 0 0 Z " fill="#E1F0F3" transform="translate(255,215)"/>
<path d="M0 0 C0.66 0.33 1.32 0.66 2 1 C-5.29840547 9.44646925 -5.29840547 9.44646925 -9 13 C-9.66 12.67 -10.32 12.34 -11 12 C-10.34 11.34 -9.68 10.68 -9 10 C-8.896875 9.01 -8.79375 8.02 -8.6875 7 C-8.460625 6.01 -8.23375 5.02 -8 4 C-5.625 2.75 -5.625 2.75 -3 2 C-2.01 1.34 -1.02 0.68 0 0 Z " fill="#9ACBDC" transform="translate(302,318)"/>
<path d="M0 0 C1.98 0 3.96 0 6 0 C5.38675022 6.50044763 5.38675022 6.50044763 3.5 8.9375 C2 10 2 10 1 10 C0.67 6.7 0.34 3.4 0 0 Z " fill="#8EE0EF" transform="translate(262,218)"/>
<path d="M0 0 C2 1 2 1 2.77783203 2.83837891 C3.57035741 5.43118267 4.35838857 8.02438993 5.125 10.625 C5.54072266 11.96111328 5.54072266 11.96111328 5.96484375 13.32421875 C7.48163482 18.39762338 8.33356166 22.70652145 8 28 C4.76844545 21.99854155 3.40296425 15.604724 2 9 C1.62662485 7.31213974 1.25168507 5.62462466 0.875 3.9375 C0.58333333 2.625 0.29166667 1.3125 0 0 Z " fill="#EEFDFD" transform="translate(322,196)"/>
<path d="M0 0 C0.33 0 0.66 0 1 0 C1 4.95 1 9.9 1 15 C2.32 15 3.64 15 5 15 C4.75 17.3125 4.75 17.3125 4 20 C2.68 20.99 1.36 21.98 0 23 C0 15.41 0 7.82 0 0 Z " fill="#B3D3DE" transform="translate(257,176)"/>
<path d="M0 0 C1.65 1.32 3.3 2.64 5 4 C4.01 4 3.02 4 2 4 C1.731875 4.86625 1.46375 5.7325 1.1875 6.625 C0.02888013 9.91791964 -1.38209839 12.91127875 -3 16 C-3.99 15.34 -4.98 14.68 -6 14 C-5.65066406 13.32453125 -5.30132812 12.6490625 -4.94140625 11.953125 C-4.48636719 11.06109375 -4.03132812 10.1690625 -3.5625 9.25 C-3.11003906 8.36828125 -2.65757812 7.4865625 -2.19140625 6.578125 C-1.16544602 4.35801434 -0.48491397 2.38555381 0 0 Z " fill="#183E5F" transform="translate(230,245)"/>
<path d="M0 0 C3.48935981 5.23403972 3.20524169 11.14049025 3.25 17.25 C3.270625 17.96929687 3.29125 18.68859375 3.3125 19.4296875 C3.328125 21.515625 3.328125 21.515625 3 25 C2.01 25.66 1.02 26.32 0 27 C0 18.09 0 9.18 0 0 Z " fill="#AFD4E1" transform="translate(244,169)"/>
<path d="M0 0 C0.99 0 1.98 0 3 0 C4.33895632 1.66215268 5.67130142 3.32963607 7 5 C8.97630407 6.36821051 10.97209016 7.70951192 13 9 C13 9.33 13 9.66 13 10 C10.22522966 10.5045037 8.52943543 10.34106788 6.14453125 8.8046875 C0.71910584 4.35248273 0.71910584 4.35248273 0 0 Z " fill="#E4F2F5" transform="translate(248,252)"/>
<path d="M0 0 C1.32 0 2.64 0 4 0 C5.29243536 4.1196377 6.26252625 7.66831683 6 12 C3 11 3 11 1.3125 8.0625 C0 5 0 5 0 3 C-0.99 3.495 -0.99 3.495 -2 4 C-1.34 2.68 -0.68 1.36 0 0 Z " fill="#254563" transform="translate(291,294)"/>
<path d="M0 0 C0.66 0.33 1.32 0.66 2 1 C2 2.98 2 4.96 2 7 C-0.12392506 7.6700834 -2.24917524 8.33596797 -4.375 9 C-5.55835938 9.37125 -6.74171875 9.7425 -7.9609375 10.125 C-11 11 -11 11 -13 11 C-13 10.34 -13 9.68 -13 9 C-9.04 7.68 -5.08 6.36 -1 5 C-0.67 3.35 -0.34 1.7 0 0 Z " fill="#9CC9DA" transform="translate(285,278)"/>
<path d="M0 0 C0.33 0 0.66 0 1 0 C1 6.6 1 13.2 1 20 C-0.65 18.35 -2.3 16.7 -4 15 C-4 14.01 -4 13.02 -4 12 C-2.68 12.33 -1.36 12.66 0 13 C0 8.71 0 4.42 0 0 Z " fill="#AECFDD" transform="translate(151,179)"/>
<path d="M0 0 C2.125 0.375 2.125 0.375 4 1 C4.625 2.875 4.625 2.875 5 5 C4.34 5.66 3.68 6.32 3 7 C0.875 6.625 0.875 6.625 -1 6 C-1.625 4.125 -1.625 4.125 -2 2 C-1.34 1.34 -0.68 0.68 0 0 Z " fill="#DDE5E8" transform="translate(219,174)"/>
<path d="M0 0 C1.67542976 0.28604898 3.34385343 0.61781233 5 1 C4.67 2.65 4.34 4.3 4 6 C2.0625 6.5625 2.0625 6.5625 0 7 C-1 6 -1 6 -1.125 3.5 C-1 1 -1 1 0 0 Z " fill="#E2E8EB" transform="translate(176,174)"/>
<path d="M0 0 C1.61648438 0.04060547 1.61648438 0.04060547 3.265625 0.08203125 C4.08546875 0.11683594 4.9053125 0.15164062 5.75 0.1875 C2.9903139 2.02729073 1.45258118 2.67073221 -1.6875 3.375 C-2.44933594 3.55417969 -3.21117187 3.73335937 -3.99609375 3.91796875 C-6.37958496 4.2029963 -7.98104204 3.91625415 -10.25 3.1875 C-6.86416198 0.05642164 -4.53890538 -0.14800778 0 0 Z " fill="#E8F7F9" transform="translate(269.25,210.8125)"/>
<path d="M0 0 C4.87664009 -0.34833144 7.77050005 0.58314288 12 3 C11 5 11 5 9.171875 5.7734375 C6.34589567 6.0682339 5.46659313 5.33954426 3.25 3.625 C2.63640625 3.16351563 2.0228125 2.70203125 1.390625 2.2265625 C0.93171875 1.82179687 0.4728125 1.41703125 0 1 C0 0.67 0 0.34 0 0 Z " fill="#18344D" transform="translate(188,240)"/>
<path d="M0 0 C1.65 0 3.3 0 5 0 C5 0.99 5 1.98 5 3 C6.98 3 8.96 3 11 3 C9 5 9 5 6.3984375 5.1953125 C5.40070313 5.17210937 4.40296875 5.14890625 3.375 5.125 C1.87066406 5.09792969 1.87066406 5.09792969 0.3359375 5.0703125 C-0.43492187 5.04710937 -1.20578125 5.02390625 -2 5 C-1.34 4.01 -0.68 3.02 0 2 C0 1.34 0 0.68 0 0 Z " fill="#4098B0" transform="translate(267,256)"/>
<path d="M0 0 C13.81776765 -0.55353075 13.81776765 -0.55353075 19 3 C19 3.66 19 4.32 19 5 C18.46632813 4.79503906 17.93265625 4.59007812 17.3828125 4.37890625 C11.58604428 2.282843 6.14267934 1.37189499 0 1 C0 0.67 0 0.34 0 0 Z " fill="#8FC7DF" transform="translate(266,214)"/>
<path d="M0 0 C-0.33 1.65 -0.66 3.3 -1 5 C-2.65 5 -4.3 5 -6 5 C-6.33 3.68 -6.66 2.36 -7 1 C-4.50935112 0.31292445 -2.62113708 0 0 0 Z " fill="#275D7F" transform="translate(291,323)"/>
<path d="M0 0 C0.66 0.33 1.32 0.66 2 1 C1.25 5.75 1.25 5.75 -1 8 C-3.1640625 8.1953125 -3.1640625 8.1953125 -5.625 8.125 C-6.44226563 8.10695313 -7.25953125 8.08890625 -8.1015625 8.0703125 C-8.72804688 8.04710937 -9.35453125 8.02390625 -10 8 C-7 6 -7 6 -3.875 5.125 C-2.451875 4.568125 -2.451875 4.568125 -1 4 C-0.03122943 1.96756452 -0.03122943 1.96756452 0 0 Z " fill="#9AC3D3" transform="translate(294,312)"/>
<path d="M0 0 C2 2 2 2 2 5 C2.66 5.33 3.32 5.66 4 6 C5.0194119 6.98020375 6.02246356 7.97803008 7 9 C4.69 9.66 2.38 10.32 0 11 C0 7.37 0 3.74 0 0 Z " fill="#5A7993" transform="translate(267,271)"/>
<path d="M0 0 C0.99 0.33 1.98 0.66 3 1 C1.906875 1.639375 0.81375 2.27875 -0.3125 2.9375 C-4.7676103 6.0578809 -5.82394358 9.85895336 -7 15 C-7.94022969 11.51821194 -8.31756981 9.45862076 -7 6 C-4.89924944 3.67301477 -2.718131 1.57865251 0 0 Z " fill="#5DBFD7" transform="translate(258,218)"/>
<path d="M0 0 C-1.32 0.33 -2.64 0.66 -4 1 C-4 2.32 -4 3.64 -4 5 C-5.65 5 -7.3 5 -9 5 C-8.67 4.01 -8.34 3.02 -8 2 C-9.98 2.99 -9.98 2.99 -12 4 C-9.58208955 0.25223881 -9.58208955 0.25223881 -7.125 -0.8125 C-4.57641432 -1.03737521 -2.4720025 -0.61800062 0 0 Z " fill="#8DD9E8" transform="translate(266,217)"/>
<path d="M0 0 C6.92307692 4.46153846 6.92307692 4.46153846 9 7 C9 7.66 9 8.32 9 9 C6.66471585 8.82701599 5.30822418 8.29774631 3.62109375 6.66796875 C0 2.42788462 0 2.42788462 0 0 Z " fill="#B2D6EC" transform="translate(283,213)"/>
<path d="M0 0 C0 0.99 0 1.98 0 3 C-2.1385485 5.1385485 -3.13275314 5.42655063 -6 6 C-6.33 7.65 -6.66 9.3 -7 11 C-7.33 11 -7.66 11 -8 11 C-8 8.36 -8 5.72 -8 3 C-5.36 2.01 -2.72 1.02 0 0 Z " fill="#1D4664" transform="translate(270,290)"/>
<path d="M0 0 C0 1.32 0 2.64 0 4 C-1.98 4.66 -3.96 5.32 -6 6 C-6 4.35 -6 2.7 -6 1 C-4 0 -4 0 0 0 Z " fill="#669AB3" transform="translate(278,271)"/>
<path d="M0 0 C1.6875 2.5 1.6875 2.5 3 5 C1.35 5.33 -0.3 5.66 -2 6 C-2 5.34 -2 4.68 -2 4 C-3.32 3.67 -4.64 3.34 -6 3 C-3.375 0 -3.375 0 0 0 Z " fill="#9CC9D9" transform="translate(196,265)"/>
<path d="M0 0 C0.66 0 1.32 0 2 0 C0.6015209 3.4087928 -0.85006933 4.87393835 -4 6.75 C-5.051875 7.39195312 -5.051875 7.39195312 -6.125 8.046875 C-8 9 -8 9 -10 9 C-10 8.34 -10 7.68 -10 7 C-8.906875 6.401875 -7.81375 5.80375 -6.6875 5.1875 C-4.05781761 3.69770009 -2.08740271 2.19726601 0 0 Z " fill="#A2D3E7" transform="translate(288,255)"/>
<path d="M0 0 C3.70254304 3.305842 5.95217819 6.5105445 8 11 C7.25 13.9375 7.25 13.9375 6 16 C5.87625 15.443125 5.7525 14.88625 5.625 14.3125 C4.64214562 10.6759388 3.32662846 7.54019323 1.375 4.3125 C0 2 0 2 0 0 Z " fill="#F1FCFB" transform="translate(309,172)"/>
<path d="M0 0 C0.33 0.99 0.66 1.98 1 3 C-2.3 3.66 -5.6 4.32 -9 5 C-9.33 4.01 -9.66 3.02 -10 2 C-3.375 0 -3.375 0 0 0 Z " fill="#1F4262" transform="translate(291,308)"/>
<path d="M0 0 C0.66 1.32 1.32 2.64 2 4 C2.99 4 3.98 4 5 4 C4.40138258 6.35171131 3.73075648 8.6859378 3 11 C2.01 11.495 2.01 11.495 1 12 C0.01751476 7.9472484 -0.08159574 4.16138263 0 0 Z " fill="#E1E9EC" transform="translate(213,300)"/>
<path d="M0 0 C0.66 0.66 1.32 1.32 2 2 C4.58354218 2.16687448 4.58354218 2.16687448 7 2 C7 2.66 7 3.32 7 4 C6.34 4 5.68 4 5 4 C5 5.65 5 7.3 5 9 C4.01 9 3.02 9 2 9 C2 7.35 2 5.7 2 4 C1.34 4 0.68 4 0 4 C0 2.68 0 1.36 0 0 Z " fill="#A4E6F0" transform="translate(255,227)"/>
<path d="M0 0 C0.33 1.32 0.66 2.64 1 4 C4.96 4 8.92 4 13 4 C9.06380686 5.96809657 6.34545324 6.67811457 2 7 C0 5 0 5 -0.125 2.375 C-0.08375 1.59125 -0.0425 0.8075 0 0 Z " fill="#8FB8C8" transform="translate(256,287)"/>
<path d="M0 0 C1.13643966 3.40931897 0.86747764 4.00335456 -0.4375 7.1875 C-0.72496094 7.90292969 -1.01242187 8.61835938 -1.30859375 9.35546875 C-1.53675781 9.89816406 -1.76492188 10.44085938 -2 11 C-2.66 11 -3.32 11 -4 11 C-4.66 11.66 -5.32 12.32 -6 13 C-5.34215037 9.70319035 -4.10579427 7.15882078 -2.4375 4.25 C-1.98246094 3.45078125 -1.52742188 2.6515625 -1.05859375 1.828125 C-0.53458984 0.92320312 -0.53458984 0.92320312 0 0 Z " fill="#B9D7E3" transform="translate(302,288)"/>
<path d="M0 0 C0.66 0.66 1.32 1.32 2 2 C1.34 3.65 0.68 5.3 0 7 C-2.31 6.34 -4.62 5.68 -7 5 C-7 4.67 -7 4.34 -7 4 C-5.35 4 -3.7 4 -2 4 C-1.34 2.68 -0.68 1.36 0 0 Z " fill="#1F4966" transform="translate(276,313)"/>
<path d="M0 0 C1.67542976 0.28604898 3.34385343 0.61781233 5 1 C5 1.99 5 2.98 5 4 C4.195625 4.12375 3.39125 4.2475 2.5625 4.375 C1.2940625 4.684375 1.2940625 4.684375 0 5 C-0.33 5.66 -0.66 6.32 -1 7 C-1.04254356 5.00045254 -1.04080783 2.99958364 -1 1 C-0.67 0.67 -0.34 0.34 0 0 Z " fill="#346F91" transform="translate(272,267)"/>
<path d="M0 0 C0.99 0 1.98 0 3 0 C3.226875 0.639375 3.45375 1.27875 3.6875 1.9375 C4.85250896 4.27193661 4.85250896 4.27193661 7.625 4.75 C8.40875 4.8325 9.1925 4.915 10 5 C10 5.33 10 5.66 10 6 C7.69 6.33 5.38 6.66 3 7 C0 3.375 0 3.375 0 0 Z " fill="#1D445E" transform="translate(270,294)"/>
<path d="M0 0 C-1.11375 0.4125 -2.2275 0.825 -3.375 1.25 C-6.38015762 2.51286124 -6.38015762 2.51286124 -8.3125 5.125 C-8.539375 5.74375 -8.76625 6.3625 -9 7 C-9.99 7.495 -9.99 7.495 -11 8 C-11.25 5.6875 -11.25 5.6875 -11 3 C-7.58600426 -0.41399574 -4.5731054 -1.52436847 0 0 Z " fill="#D4E2E6" transform="translate(268,283)"/>
<path d="M0 0 C0.33 0.99 0.66 1.98 1 3 C-2.08306962 8.70938819 -2.08306962 8.70938819 -5.14453125 9.6796875 C-5.75683594 9.78539062 -6.36914062 9.89109375 -7 10 C-6.02223933 8.51990357 -5.0427506 7.04094856 -4.0625 5.5625 C-3.51722656 4.73878906 -2.97195313 3.91507813 -2.41015625 3.06640625 C-1 1 -1 1 0 0 Z " fill="#CEEBF0" transform="translate(292,246)"/>
<path d="M0 0 C2.475 0.99 2.475 0.99 5 2 C3.63016497 5.16115776 3.0109362 5.9927092 0 8 C0 5.36 0 2.72 0 0 Z " fill="#D4DCE0" transform="translate(199,248)"/>
<path d="M0 0 C0.33 0.99 0.66 1.98 1 3 C-0.43359375 5.04296875 -0.43359375 5.04296875 -2.4375 7.1875 C-3.09621094 7.90292969 -3.75492187 8.61835938 -4.43359375 9.35546875 C-4.95050781 9.89816406 -5.46742187 10.44085938 -6 11 C-6.66 10.67 -7.32 10.34 -8 10 C-5.36 6.7 -2.72 3.4 0 0 Z " fill="#223B54" transform="translate(126,170)"/>
<path d="M0 0 C-0.33 2.31 -0.66 4.62 -1 7 C-1.66 7 -2.32 7 -3 7 C-3.33 6.01 -3.66 5.02 -4 4 C-4.99 3.34 -5.98 2.68 -7 2 C-4.35261084 0.5393715 -3.10551666 0 0 0 Z " fill="#052544" transform="translate(295,320)"/>
<path d="M0 0 C1.32 0 2.64 0 4 0 C4 1.98 4 3.96 4 6 C2.68 5.67 1.36 5.34 0 5 C0 3.35 0 1.7 0 0 Z " fill="#D4ECF4" transform="translate(147,186)"/>
<path d="M0 0 C1.32 0.99 2.64 1.98 4 3 C1.69 4.65 -0.62 6.3 -3 8 C-3.66 7.67 -4.32 7.34 -5 7 C-4.175 6.21625 -3.35 5.4325 -2.5 4.625 C0.22988506 2.36278736 0.22988506 2.36278736 0 0 Z " fill="#EBF9FA" transform="translate(279,337)"/>
<path d="M0 0 C0.93423645 3.01031744 1.04449911 3.86650268 0 7 C-1.32 6.67 -2.64 6.34 -4 6 C-2.84826645 3.53199953 -1.95216435 1.95216435 0 0 Z " fill="#0E2A4C" transform="translate(295,304)"/>
<path d="M0 0 C1.89213369 2.38573379 3.02391783 4.07175348 4 7 C3.01 7.33 2.02 7.66 1 8 C0.01 5.69 -0.98 3.38 -2 1 C-1.34 0.67 -0.68 0.34 0 0 Z " fill="#2B435D" transform="translate(179,248)"/>
<path d="M0 0 C1.9375 0.25 1.9375 0.25 4 1 C4.66 1.99 5.32 2.98 6 4 C5.01 4 4.02 4 3 4 C3 3.34 3 2.68 3 2 C1.02 3.32 -0.96 4.64 -3 6 C-1.125 1.125 -1.125 1.125 0 0 Z " fill="#DAE3E5" transform="translate(183,238)"/>
<path d="M0 0 C2.02054804 1.64169528 4.02043058 3.30911778 6 5 C6 5.33 6 5.66 6 6 C3.625 6.125 3.625 6.125 1 6 C0.34 5.34 -0.32 4.68 -1 4 C-0.625 1.875 -0.625 1.875 0 0 Z " fill="#082949" transform="translate(283,325)"/>
<path d="M0 0 C0.33 0 0.66 0 1 0 C1 3.3 1 6.6 1 10 C-2.375 5.5 -2.375 5.5 -3 2 C-2.34 2 -1.68 2 -1 2 C-0.67 1.34 -0.34 0.68 0 0 Z " fill="#E7F0F2" transform="translate(195,303)"/>
<path d="M0 0 C1.32 0 2.64 0 4 0 C2.92598892 2.91517292 2.22189824 4.77810176 0 7 C0 6.34 0 5.68 0 5 C-0.66 4.67 -1.32 4.34 -2 4 C-1.34 2.68 -0.68 1.36 0 0 Z " fill="#0C3051" transform="translate(271,289)"/>
<path d="M0 0 C1.32 0 2.64 0 4 0 C4 1.65 4 3.3 4 5 C2.68 5 1.36 5 0 5 C0 3.35 0 1.7 0 0 Z " fill="#D7EDF5" transform="translate(258,186)"/>
<path d="M0 0 C0.268125 0.598125 0.53625 1.19625 0.8125 1.8125 C1.98493467 3.97224808 3.19369282 5.35790256 5 7 C3.33388095 7.042721 1.66617115 7.04063832 0 7 C-1 6 -1 6 -1.125 3.5 C-1 1 -1 1 0 0 Z " fill="#B0D3DE" transform="translate(274,291)"/>
<path d="M0 0 C1.5 1.375 1.5 1.375 3 3 C3 3.66 3 4.32 3 5 C2.01 5 1.02 5 0 5 C-0.33 5.99 -0.66 6.98 -1 8 C-1.33 7.34 -1.66 6.68 -2 6 C-2.66 5.67 -3.32 5.34 -4 5 C-3.34 5 -2.68 5 -2 5 C-1.67 4.34 -1.34 3.68 -1 3 C-0.34 3.33 0.32 3.66 1 4 C0.67 2.68 0.34 1.36 0 0 Z " fill="#173C5C" transform="translate(280,270)"/>
<path d="M0 0 C1.32 0.99 2.64 1.98 4 3 C3.67 4.32 3.34 5.64 3 7 C1.35 5.35 -0.3 3.7 -2 2 C-1.34 1.34 -0.68 0.68 0 0 Z " fill="#1C3F5D" transform="translate(216,262)"/>
<path d="M0 0 C0.66 1.32 1.32 2.64 2 4 C-0.475 5.485 -0.475 5.485 -3 7 C-2.25 2.25 -2.25 2.25 0 0 Z " fill="#133451" transform="translate(215,240)"/>
<path d="M0 0 C2.475 0.495 2.475 0.495 5 1 C5 1.99 5 2.98 5 4 C3.35 4 1.7 4 0 4 C0 2.68 0 1.36 0 0 Z " fill="#ECFAF9" transform="translate(262,218)"/>
<path d="M0 0 C3 2 3 2 3.8125 3.9375 C4 6 4 6 2 9 C0.14223235 5.86501708 -0.20140476 3.62528568 0 0 Z " fill="#4FA9C5" transform="translate(285,223)"/>
<path d="M0 0 C1.65 0.99 3.3 1.98 5 3 C4.67 4.32 4.34 5.64 4 7 C2 5.1875 2 5.1875 0 3 C0 2.01 0 1.02 0 0 Z " fill="#56B2CD" transform="translate(280,219)"/>
<path d="M0 0 C1.65 1.32 3.3 2.64 5 4 C4.01 4 3.02 4 2 4 C1.34 5.32 0.68 6.64 0 8 C-0.98120464 4.94736336 -0.98120464 3.05263664 0 0 Z " fill="#244969" transform="translate(230,245)"/>
<path d="M0 0 C0.99 0.33 1.98 0.66 3 1 C2.67 1.66 2.34 2.32 2 3 C1.01 3.33 0.02 3.66 -1 4 C-2.20882096 6.00016466 -2.20882096 6.00016466 -3 8 C-3.75 6.25 -3.75 6.25 -4 4 C-2.0625 1.75 -2.0625 1.75 0 0 Z " fill="#2C4963" transform="translate(177,171)"/>
</svg>
