<?xml version="1.0" standalone="no"?>
<!DOCTYPE svg PUBLIC "-//W3C//DTD SVG 20010904//EN"
 "http://www.w3.org/TR/2001/REC-SVG-20010904/DTD/svg10.dtd">
<svg version="1.0" xmlns="http://www.w3.org/2000/svg"
 width="865.000000pt" height="285.000000pt" viewBox="0 0 865.000000 285.000000"
 preserveAspectRatio="xMidYMid meet">

<g transform="translate(0.000000,285.000000) scale(0.100000,-0.100000)"
fill="#000000" stroke="none">
<path d="M1587 2342 c-10 -10 -17 -30 -17 -44 0 -24 -4 -26 -57 -32 -148 -17
-340 -103 -465 -207 -151 -127 -279 -360 -296 -543 -7 -67 -8 -69 -42 -80 -67
-21 -65 -106 2 -124 31 -8 33 -11 39 -63 25 -218 149 -436 331 -575 118 -91
298 -167 429 -181 58 -6 59 -6 59 -38 0 -38 26 -65 63 -65 35 0 69 38 65 71
-4 26 -2 27 56 32 126 12 346 100 346 138 0 9 3 24 6 32 5 13 1 14 -30 5 -38
-12 -122 0 -119 16 1 5 19 16 40 25 21 8 60 28 87 44 l49 28 38 -37 c42 -41
47 -55 24 -74 -37 -30 -19 -61 108 -187 67 -67 135 -127 151 -133 82 -31 165
46 148 136 -7 36 -246 284 -274 284 -11 0 -29 -5 -40 -11 -17 -9 -26 -5 -59
27 -21 21 -39 42 -39 46 0 9 14 27 42 56 10 10 31 47 47 82 22 48 31 61 36 48
8 -21 2 -137 -9 -161 -14 -30 39 -22 64 10 64 81 150 316 150 411 0 27 4 32
23 32 30 0 60 32 60 65 0 33 -30 65 -60 65 -20 0 -23 5 -23 38 0 97 -60 271
-133 385 -48 75 -169 201 -237 247 -122 83 -268 141 -392 155 -51 6 -58 10
-58 29 0 12 -7 32 -16 44 -19 28 -74 30 -97 4z m1 -296 c-2 -25 -8 -32 -28
-34 -72 -7 -193 -52 -266 -98 -89 -56 -178 -155 -229 -253 -28 -56 -65 -164
-65 -193 0 -48 -9 -58 -52 -58 l-40 0 5 48 c13 103 63 234 127 327 43 63 136
153 201 195 32 20 55 41 51 45 -4 5 -2 5 4 2 6 -4 40 5 75 19 82 34 189 55
207 41 7 -6 12 -24 10 -41z m272 14 c67 -22 162 -73 203 -107 16 -13 33 -21
38 -17 5 3 8 0 7 -8 -2 -7 3 -12 10 -10 6 1 11 -1 10 -6 -2 -4 8 -19 21 -32
77 -82 162 -228 176 -304 4 -20 10 -34 14 -32 3 2 6 -12 7 -32 0 -21 3 -52 7
-69 l7 -33 -45 0 c-41 0 -45 2 -45 25 0 60 -70 255 -92 255 -5 0 -7 4 -4 9 3
4 -3 16 -14 26 -11 10 -20 24 -20 31 0 18 -142 146 -191 172 -22 12 -46 19
-51 15 -7 -3 -8 -1 -4 5 4 7 6 12 4 12 -2 0 -36 11 -76 25 -41 14 -89 25 -108
25 -33 0 -34 1 -34 38 0 21 2 41 5 44 8 8 113 -11 175 -32z m-141 -165 c58
-20 101 -53 101 -76 0 -10 10 -41 23 -67 23 -46 23 -51 10 -117 -15 -72 -41
-133 -67 -154 -9 -7 -13 -18 -9 -25 4 -6 8 -15 8 -21 0 -5 16 -13 35 -18 50
-13 142 -48 159 -61 12 -9 13 -8 6 4 -6 11 -2 10 11 -2 10 -10 39 -33 63 -50
68 -51 81 -84 81 -207 0 -120 7 -122 58 -18 41 84 63 151 69 215 l6 52 38 0
c21 0 40 -3 42 -7 13 -21 -36 -217 -69 -282 -7 -13 -11 -28 -8 -33 3 -4 1 -8
-5 -8 -6 0 -18 -15 -27 -32 -27 -52 -80 -112 -154 -174 -97 -80 -216 -130
-357 -149 l-53 -7 0 41 c0 38 2 41 28 41 76 0 239 63 319 123 l42 32 1 147 0
147 -31 36 c-34 39 -154 102 -210 111 l-35 6 -17 -84 c-18 -94 -59 -241 -81
-290 l-14 -33 -2 35 c0 19 -5 82 -10 140 -8 97 -7 107 11 125 19 19 18 20 -13
52 l-32 33 37 38 c50 51 49 66 -6 59 -23 -3 -59 -2 -80 2 -50 12 -50 -10 0
-61 l37 -38 -32 -33 c-29 -30 -31 -34 -16 -49 18 -18 20 -121 5 -243 l-7 -60
-28 85 c-31 96 -76 279 -76 311 0 23 -3 22 -95 -12 -81 -31 -153 -77 -170
-109 -12 -24 -15 -59 -13 -172 l3 -141 55 -38 c71 -50 185 -98 269 -113 l66
-12 0 -35 0 -34 -50 3 c-85 4 -198 45 -300 110 -71 44 -190 159 -200 193 -4
11 -11 16 -18 13 -7 -4 -9 -4 -5 0 3 4 -4 29 -17 54 -38 76 -76 199 -78 255
l-2 52 37 3 c32 3 38 0 42 -20 2 -13 8 -48 14 -79 6 -31 20 -76 31 -100 12
-23 21 -48 21 -53 0 -6 14 -29 30 -50 l30 -40 2 110 c0 60 1 115 1 122 -1 7 1
11 4 9 2 -3 20 11 38 31 44 50 213 133 294 146 24 4 30 38 10 60 -55 58 -85
202 -56 267 8 19 18 46 21 61 17 75 177 122 285 83z m-322 -119 c-1 -19 -4
-33 -5 -31 -4 4 -33 -19 -99 -79 -49 -44 -97 -133 -113 -212 -10 -48 -14 -55
-33 -52 -80 11 30 257 157 350 23 16 40 34 38 40 -1 5 2 7 8 3 5 -3 18 -1 27
4 10 6 19 11 20 11 1 0 1 -15 0 -34z m489 23 c3 -6 15 -9 25 -6 10 3 17 1 16
-4 -3 -13 94 -90 105 -83 6 4 8 1 6 -7 -3 -8 3 -25 13 -38 11 -13 19 -32 19
-43 0 -39 -29 -30 -88 29 -74 73 -90 85 -100 79 -5 -3 -9 0 -9 7 0 7 -3 27 -7
45 -7 31 5 45 20 21z m-518 -235 c24 -17 30 -62 10 -82 -21 -21 -66 -14 -84
13 -19 29 -12 58 19 73 29 14 29 14 55 -4z m577 4 c34 -15 42 -51 18 -80 -21
-26 -62 -30 -80 -8 -20 25 -15 67 9 84 27 19 21 19 53 4z m170 -25 c4 -10 13
-42 20 -70 10 -44 10 -55 -1 -64 -20 -17 -43 -4 -49 28 -3 15 -10 42 -15 59
-16 49 -13 64 14 64 13 0 27 -8 31 -17z m-1000 -133 c25 -28 11 -71 -29 -85
-24 -8 -31 -6 -47 14 -11 14 -18 36 -16 55 2 30 5 33 38 34 25 2 41 -3 54 -18z
m1109 4 c22 -21 20 -57 -4 -79 -45 -41 -108 24 -73 74 17 25 55 27 77 5z
m-304 -254 c11 -11 20 -31 20 -45 0 -30 -32 -65 -60 -65 -25 0 -70 42 -70 65
0 23 45 65 70 65 11 0 29 -9 40 -20z"/>
<path d="M1545 1821 c-44 -16 -50 -21 -51 -47 -1 -16 -7 -42 -14 -57 -11 -23
-12 -39 -2 -84 35 -167 201 -207 279 -68 30 54 39 129 20 159 -8 12 -17 33
-19 46 -8 59 -118 86 -213 51z"/>
<path d="M3752 1832 c-66 -24 -133 -87 -161 -151 -29 -68 -144 -577 -145 -641
-1 -67 28 -127 73 -153 77 -46 222 -27 299 39 71 60 96 126 167 434 36 155 65
302 65 326 0 62 -30 117 -77 139 -56 27 -157 30 -221 7z m96 -192 c4 -34 -116
-549 -134 -578 -11 -17 -23 -22 -42 -20 -22 2 -28 9 -30 33 -3 27 92 460 119
542 18 56 81 73 87 23z"/>
<path d="M3355 1818 c-3 -13 -44 -187 -90 -388 -60 -259 -90 -369 -102 -377
-24 -18 -52 -16 -60 4 -6 14 21 166 43 251 6 22 5 22 -88 22 l-95 0 -32 -146
c-36 -157 -37 -208 -3 -253 46 -63 146 -86 245 -57 71 21 156 95 185 163 16
37 192 769 192 797 0 3 -43 6 -95 6 -90 0 -95 -1 -100 -22z"/>
<path d="M4064 1357 l-111 -482 149 -3 c173 -3 214 5 269 55 123 111 187 441
92 477 -14 6 -9 12 24 32 48 28 75 76 99 179 28 124 5 193 -75 215 -20 5 -103
10 -186 10 l-150 0 -111 -483z m330 283 c-1 -57 -20 -124 -40 -145 -8 -8 -29
-15 -45 -15 -32 0 -32 -6 -7 95 29 121 26 116 61 113 31 -3 32 -4 31 -48z
m-84 -320 c19 -12 16 -67 -9 -166 -22 -87 -44 -114 -93 -114 -25 0 -29 3 -25
20 3 11 17 76 33 145 26 121 28 125 53 125 14 0 33 -4 41 -10z"/>
<path d="M4975 1828 c-2 -7 -53 -226 -113 -485 l-108 -473 95 0 96 0 50 220
50 220 48 0 c41 0 48 -3 43 -17 -6 -21 -96 -413 -96 -419 0 -2 42 -4 94 -4
l94 0 10 43 c19 73 212 914 212 921 0 3 -42 6 -94 6 l-94 0 -26 -112 c-14 -62
-32 -140 -39 -173 l-13 -60 -47 -3 c-26 -2 -47 -1 -47 2 0 4 52 233 74 329 4
15 -5 17 -90 17 -67 0 -96 -4 -99 -12z"/>
<path d="M5526 1823 c-11 -38 -165 -720 -171 -759 -8 -55 11 -127 43 -157 50
-47 147 -59 241 -31 71 21 140 89 169 166 12 31 58 216 102 410 45 194 84 361
86 371 5 15 -4 17 -89 17 l-93 0 -84 -362 c-46 -200 -89 -377 -96 -395 -13
-32 -51 -52 -73 -38 -21 13 -9 86 73 438 l83 357 -93 0 c-80 0 -93 -2 -98 -17z"/>
<path d="M6070 1836 c0 -2 -49 -219 -110 -481 -60 -263 -110 -480 -110 -482 0
-1 42 -3 93 -3 l93 0 53 227 c29 126 54 230 56 232 3 2 2 -101 -2 -228 l-6
-232 94 3 93 3 111 483 111 482 -93 0 c-51 0 -93 -2 -93 -4 0 -15 -102 -441
-106 -445 -3 -4 -3 26 0 64 3 39 8 141 11 228 l6 157 -100 0 c-56 0 -101 -2
-101 -4z"/>
<path d="M6585 1763 c-9 -43 -19 -86 -21 -95 -5 -16 2 -18 50 -18 38 0 56 -4
56 -12 0 -7 -38 -177 -85 -378 -47 -200 -85 -370 -85 -377 0 -10 24 -13 93
-13 l94 0 89 388 89 387 60 5 60 5 17 75 c27 123 48 110 -191 110 l-209 0 -17
-77z"/>
<path d="M7075 1818 c-36 -151 -215 -934 -215 -940 0 -4 89 -8 198 -8 l199 0
17 81 c10 45 20 87 23 95 4 11 -14 14 -96 14 -74 0 -101 3 -101 13 0 6 11 57
23 112 l22 100 92 3 c77 2 93 6 97 20 6 20 36 151 36 158 0 2 -40 4 -90 4 -49
0 -90 2 -90 5 0 3 10 44 21 90 l21 84 96 3 97 3 21 93 21 92 -193 0 c-193 0
-194 0 -199 -22z"/>
<path d="M7447 1412 c-54 -235 -105 -453 -112 -485 l-13 -57 97 0 97 0 49 213
c26 116 51 216 56 221 4 5 19 6 33 2 35 -9 34 -23 -18 -246 l-43 -185 90 -3
c49 -1 92 -1 94 2 11 11 93 382 93 421 0 35 -5 48 -25 63 -25 20 -25 21 -6 27
41 13 88 83 109 163 43 165 35 243 -28 274 -29 15 -63 18 -205 18 l-170 0 -98
-428z m331 226 c5 -26 -26 -124 -44 -142 -14 -14 -74 -23 -74 -12 0 7 30 138
36 159 8 25 77 20 82 -5z"/>
</g>
</svg>
