<?xml version="1.0" encoding="UTF-8"?>
<!DOCTYPE svg PUBLIC "-//W3C//DTD SVG 1.1//EN" "http://www.w3.org/Graphics/SVG/1.1/DTD/svg11.dtd">
<svg xmlns="http://www.w3.org/2000/svg" version="1.1" width="1080px" height="461px" style="shape-rendering:geometricPrecision; text-rendering:geometricPrecision; image-rendering:optimizeQuality; fill-rule:evenodd; clip-rule:evenodd" xmlns:xlink="http://www.w3.org/1999/xlink">
<g><path style="opacity:1" fill="#f7fafa" d="M 252.5,124.5 C 299.626,146.159 324.959,182.993 328.5,235C 327.903,252.653 324.736,269.819 319,286.5C 316.392,291.397 313.559,296.063 310.5,300.5C 308.116,298.753 306.45,296.42 305.5,293.5C 301.988,291.819 299.321,289.319 297.5,286C 298.885,284.403 299.551,282.57 299.5,280.5C 299.629,278.784 299.962,277.117 300.5,275.5C 302.717,272.223 304.384,268.556 305.5,264.5C 306.631,263.396 307.465,263.729 308,265.5C 308.167,264.5 308.333,263.5 308.5,262.5C 308.42,248.865 308.253,235.199 308,221.5C 307.79,219.942 307.29,218.609 306.5,217.5C 298.744,181.866 278.077,156.699 244.5,142C 234.604,129.887 221.937,122.72 206.5,120.5C 201.637,120.016 196.803,119.016 192,117.5C 189.63,118.128 187.297,118.461 185,118.5C 184.5,118 184,117.5 183.5,117C 193.132,115.307 202.799,115.141 212.5,116.5C 218.167,117.167 223.833,117.833 229.5,118.5C 229.977,119.478 230.643,120.311 231.5,121C 238.059,121.661 244.392,123.161 250.5,125.5C 251.183,125.137 251.85,124.804 252.5,124.5 Z"/></g>
<g><path style="opacity:0.999" fill="#f6f9fa" d="M 252.5,124.5 C 251.85,124.804 251.183,125.137 250.5,125.5C 244.392,123.161 238.059,121.661 231.5,121C 230.643,120.311 229.977,119.478 229.5,118.5C 223.833,117.833 218.167,117.167 212.5,116.5C 202.799,115.141 193.132,115.307 183.5,117C 184,117.5 184.5,118 185,118.5C 187.297,118.461 189.63,118.128 192,117.5C 196.803,119.016 201.637,120.016 206.5,120.5C 186.28,119.065 169.947,126.231 157.5,142C 154.102,143.357 151.102,145.19 148.5,147.5C 108.422,173.338 91.9216,210.005 99,257.5C 101.794,271.742 107.294,284.742 115.5,296.5C 119.054,287.724 122.887,279.058 127,270.5C 130.714,263.952 135.88,258.952 142.5,255.5C 143.493,263.984 143.826,272.651 143.5,281.5C 142.167,281.5 141.5,282.167 141.5,283.5C 139.722,288.272 138.389,293.272 137.5,298.5C 134.3,304.097 132.967,310.097 133.5,316.5C 137.264,319.611 141.264,322.277 145.5,324.5C 150.651,329.076 156.651,332.076 163.5,333.5C 163.5,321.5 163.5,309.5 163.5,297.5C 158.489,297.666 153.489,297.499 148.5,297C 147.544,293.606 147.211,290.106 147.5,286.5C 154.5,286.5 161.5,286.5 168.5,286.5C 168.333,303.17 168.5,319.837 169,336.5C 170.011,337.337 171.178,337.67 172.5,337.5C 172.833,337.5 173.167,337.5 173.5,337.5C 174.209,338.404 175.209,338.737 176.5,338.5C 177.568,339.434 178.901,339.768 180.5,339.5C 196.254,343.702 211.921,343.369 227.5,338.5C 238.378,335.894 248.712,331.894 258.5,326.5C 261.528,326.661 264.361,325.994 267,324.5C 270.987,327.343 274.153,330.843 276.5,335C 275.001,335.838 274.668,336.671 275.5,337.5C 237.539,364.399 196.872,368.899 153.5,351C 98.0917,323.693 73.2583,279.193 79,217.5C 89.2695,168.894 117.77,136.06 164.5,119C 194.709,108.812 224.043,110.645 252.5,124.5 Z"/></g>
<g><path style="opacity:1" fill="#f8fafa" d="M 194.5,129.5 C 199.58,129.25 204.58,129.75 209.5,131C 210.308,131.308 210.975,131.808 211.5,132.5C 210.835,134.101 210.501,135.601 210.5,137C 211.793,137.49 213.127,137.657 214.5,137.5C 214.281,138.675 214.614,139.675 215.5,140.5C 228.087,146.247 236.587,155.581 241,168.5C 244.459,195.118 233.626,212.618 208.5,221C 189.094,223.478 174.427,216.312 164.5,199.5C 163.675,198.614 162.675,198.281 161.5,198.5C 160.039,194.667 158.872,190.667 158,186.5C 157.015,187.814 155.848,188.814 154.5,189.5C 149.605,163.123 159.272,143.956 183.5,132C 187.07,130.69 190.737,129.857 194.5,129.5 Z"/></g>
<g><path style="opacity:1" fill="#072845" d="M 206.5,120.5 C 221.937,122.72 234.604,129.887 244.5,142C 278.077,156.699 298.744,181.866 306.5,217.5C 306.5,218.5 306.5,219.5 306.5,220.5C 305.624,220.631 304.957,220.298 304.5,219.5C 303.82,217.111 302.986,214.778 302,212.5C 301.667,213.167 301.333,213.833 301,214.5C 300.138,212.913 299.471,211.246 299,209.5C 296.175,214.734 293.009,215.734 289.5,212.5C 287.482,213.817 285.482,213.817 283.5,212.5C 280.446,210.306 277.112,208.639 273.5,207.5C 258.952,204.284 247.952,208.951 240.5,221.5C 239.034,222.347 238.2,223.68 238,225.5C 237.333,231.833 237.333,238.167 238,244.5C 240.196,249.531 243.363,253.865 247.5,257.5C 243.573,257.744 241.24,255.91 240.5,252C 239.072,251.421 237.738,251.588 236.5,252.5C 236.5,251.833 236.5,251.167 236.5,250.5C 237.434,249.432 237.768,248.099 237.5,246.5C 234.502,245.658 231.502,245.158 228.5,245C 224.961,251.913 221.294,258.746 217.5,265.5C 215.5,263.833 213.5,262.167 211.5,260.5C 209.448,261.611 208.114,263.277 207.5,265.5C 208.167,278.167 208.833,290.833 209.5,303.5C 209.433,305.401 209.767,307.234 210.5,309C 207.71,316.658 204.544,324.158 201,331.5C 197.874,323.585 195.04,315.585 192.5,307.5C 193.727,293.173 194.561,278.84 195,264.5C 194.125,261.785 192.292,260.452 189.5,260.5C 189.5,259.833 189.5,259.167 189.5,258.5C 193.145,254.52 196.811,250.52 200.5,246.5C 194.1,242.976 188.1,238.976 182.5,234.5C 183.583,234.539 184.583,234.873 185.5,235.5C 186.298,235.043 186.631,234.376 186.5,233.5C 191.209,238.983 197.209,240.983 204.5,239.5C 208.256,238.455 211.589,236.622 214.5,234C 209.324,234.132 204.324,233.965 199.5,233.5C 201.167,233.5 202.833,233.5 204.5,233.5C 204.5,232.5 204.5,231.5 204.5,230.5C 201.941,230.802 199.607,230.468 197.5,229.5C 230.666,227.834 247.999,210.334 249.5,177C 245.952,147.952 229.619,131.785 200.5,128.5C 198.304,128.505 196.304,128.838 194.5,129.5C 190.737,129.857 187.07,130.69 183.5,132C 159.272,143.956 149.605,163.123 154.5,189.5C 154.5,190.833 154.5,192.167 154.5,193.5C 153.065,192.21 152.065,190.544 151.5,188.5C 150.52,191.086 150.187,193.753 150.5,196.5C 149.127,196.343 147.793,196.51 146.5,197C 148.932,198.087 148.598,198.587 145.5,198.5C 145.5,196.5 145.5,194.5 145.5,192.5C 146.712,193.23 147.712,194.23 148.5,195.5C 149.491,191.555 149.824,187.555 149.5,183.5C 151.237,180.992 152.07,177.992 152,174.5C 152.793,170.577 152.626,166.744 151.5,163C 152.579,162.044 153.745,161.211 155,160.5C 155.521,157.081 156.355,153.748 157.5,150.5C 155.355,149.318 155.355,147.818 157.5,146C 154.738,147.035 151.738,147.535 148.5,147.5C 151.102,145.19 154.102,143.357 157.5,142C 169.947,126.231 186.28,119.065 206.5,120.5 Z"/></g>
<g><path style="opacity:1" fill="#bddfe9" d="M 188.5,139.5 C 191.187,139.336 193.854,139.503 196.5,140C 178.149,145.521 166.815,157.688 162.5,176.5C 161.222,168.389 163.055,161.056 168,154.5C 173.606,147.634 180.439,142.634 188.5,139.5 Z"/></g>
<g><path style="opacity:1" fill="#0e2a45" d="M 216.5,167.5 C 222.883,166.476 228.383,168.143 233,172.5C 236.445,185.73 231.278,191.563 217.5,190C 208.695,182.87 208.362,175.37 216.5,167.5 Z"/></g>
<g><path style="opacity:1" fill="#0b2944" d="M 174.5,167.5 C 180.883,166.476 186.383,168.143 191,172.5C 193.973,185.528 188.806,191.361 175.5,190C 169.508,186.11 167.341,180.61 169,173.5C 170.36,170.977 172.193,168.977 174.5,167.5 Z"/></g>
<g><path style="opacity:1" fill="#032643" d="M 149.5,183.5 C 149.827,178.456 149.494,173.456 148.5,168.5C 147.108,169.605 145.941,170.939 145,172.5C 144.244,179.217 144.411,185.883 145.5,192.5C 145.5,194.5 145.5,196.5 145.5,198.5C 148.598,198.587 148.932,198.087 146.5,197C 147.793,196.51 149.127,196.343 150.5,196.5C 150.187,193.753 150.52,191.086 151.5,188.5C 152.065,190.544 153.065,192.21 154.5,193.5C 159.767,208.932 169.767,220.098 184.5,227C 188.728,228.412 193.061,229.246 197.5,229.5C 199.607,230.468 201.941,230.802 204.5,230.5C 204.5,231.5 204.5,232.5 204.5,233.5C 202.833,233.5 201.167,233.5 199.5,233.5C 196.5,233.5 193.5,233.5 190.5,233.5C 189.039,232.314 187.705,232.314 186.5,233.5C 186.631,234.376 186.298,235.043 185.5,235.5C 184.583,234.873 183.583,234.539 182.5,234.5C 179.403,233.523 177.403,234.856 176.5,238.5C 174.744,239.552 174.077,241.219 174.5,243.5C 171.102,243.18 167.768,243.513 164.5,244.5C 163.873,245.417 163.539,246.417 163.5,247.5C 156.28,249.792 149.28,252.459 142.5,255.5C 135.88,258.952 130.714,263.952 127,270.5C 122.887,279.058 119.054,287.724 115.5,296.5C 107.294,284.742 101.794,271.742 99,257.5C 91.9216,210.005 108.422,173.338 148.5,147.5C 151.738,147.535 154.738,147.035 157.5,146C 155.355,147.818 155.355,149.318 157.5,150.5C 156.355,153.748 155.521,157.081 155,160.5C 153.745,161.211 152.579,162.044 151.5,163C 152.626,166.744 152.793,170.577 152,174.5C 152.07,177.992 151.237,180.992 149.5,183.5 Z"/></g>
<g><path style="opacity:1" fill="#dce6ea" d="M 172.5,171.5 C 174.167,171.5 175.833,171.5 177.5,171.5C 178.508,176.667 176.675,178.334 172,176.5C 171.36,174.735 171.527,173.068 172.5,171.5 Z"/></g>
<g><path style="opacity:0.999" fill="#084e6d" d="M 462.5,171.5 C 479.14,174.677 485.64,184.677 482,201.5C 476.686,223.424 471.686,245.424 467,267.5C 465.274,271.953 463.274,276.286 461,280.5C 459.02,282.899 456.853,284.899 454.5,286.5C 454.631,285.761 454.464,285.094 454,284.5C 449.816,284.88 445.983,286.213 442.5,288.5C 443.025,289.192 443.692,289.692 444.5,290C 443.207,290.49 441.873,290.657 440.5,290.5C 440.5,289.5 440.5,288.5 440.5,287.5C 439.022,287.762 437.689,287.429 436.5,286.5C 438.437,285.842 440.27,285.509 442,285.5C 442.388,283.924 441.888,282.591 440.5,281.5C 437.048,283.652 433.381,283.986 429.5,282.5C 432.086,281.52 434.753,281.187 437.5,281.5C 437.5,280.167 437.5,278.833 437.5,277.5C 436.022,277.762 434.689,277.429 433.5,276.5C 439.061,273.404 442.728,268.738 444.5,262.5C 444.94,260.235 445.606,258.068 446.5,256C 445.244,255.583 444.577,254.75 444.5,253.5C 447.565,237.25 451.231,221.25 455.5,205.5C 455.351,206.552 455.517,207.552 456,208.5C 457.363,204.239 457.696,199.905 457,195.5C 454.043,192.438 450.543,191.772 446.5,193.5C 447.167,194.167 447.833,194.833 448.5,195.5C 447.24,196.382 446.074,197.382 445,198.5C 444.333,195.833 443.667,195.833 443,198.5C 441.887,197.289 440.72,197.289 439.5,198.5C 438.224,193.318 437.557,193.318 437.5,198.5C 435.11,198.855 432.777,199.522 430.5,200.5C 427.002,200.003 425.335,198.003 425.5,194.5C 427.65,194.905 429.65,195.405 431.5,196C 429.496,193.159 428.996,189.993 430,186.5C 433.528,182.325 437.695,178.992 442.5,176.5C 449.113,177.65 455.446,176.65 461.5,173.5C 462.298,173.043 462.631,172.376 462.5,171.5 Z"/></g>
<g><path style="opacity:1" fill="#d9e4e8" d="M 214.5,171.5 C 216.167,171.5 217.833,171.5 219.5,171.5C 220.508,176.667 218.675,178.334 214,176.5C 213.36,174.735 213.527,173.068 214.5,171.5 Z"/></g>
<g><path style="opacity:1" fill="#0a506d" d="M 596.5,172.5 C 604.752,172.184 612.919,172.518 621,173.5C 618.497,187.512 615.664,201.512 612.5,215.5C 615.448,215.777 618.281,215.444 621,214.5C 624.127,200.518 627.627,186.685 631.5,173C 639.833,172.333 648.167,172.333 656.5,173C 648.387,213.539 639.221,254.039 629,294.5C 620.585,295.483 612.085,295.817 603.5,295.5C 606.909,277.457 610.575,259.457 614.5,241.5C 611.289,241.012 608.456,241.679 606,243.5C 602.466,260.635 598.466,277.635 594,294.5C 585.579,295.649 577.079,295.816 568.5,295C 568.043,294.586 567.709,294.086 567.5,293.5C 577.3,253.162 586.966,212.829 596.5,172.5 Z"/></g>
<g><path style="opacity:1" fill="#cbdfe7" d="M 149.5,183.5 C 149.824,187.555 149.491,191.555 148.5,195.5C 147.712,194.23 146.712,193.23 145.5,192.5C 144.411,185.883 144.244,179.217 145,172.5C 145.941,170.939 147.108,169.605 148.5,168.5C 149.494,173.456 149.827,178.456 149.5,183.5 Z"/></g>
<g><path style="opacity:0.999" fill="#0a4e6c" d="M 395.5,172.5 C 403.507,172.334 411.507,172.5 419.5,173C 420.081,173.893 420.415,174.893 420.5,176C 412.921,207.818 405.421,239.651 398,271.5C 387.548,293.643 370.714,300.809 347.5,293C 340.797,288.931 337.463,282.931 337.5,275C 339.107,261.911 342.107,249.244 346.5,237C 354.493,236.5 362.493,236.334 370.5,236.5C 369.083,247.422 367.083,258.255 364.5,269C 366.441,273.347 368.941,273.514 372,269.5C 379.998,237.174 387.832,204.841 395.5,172.5 Z"/></g>
<g><path style="opacity:0.999" fill="#09506e" d="M 758.5,214.5 C 755.75,216.008 754.916,218.341 756,221.5C 756.667,220.167 757.333,220.167 758,221.5C 758.167,224 758.333,226.5 758.5,229C 757.757,235.666 756.591,242.166 755,248.5C 754.667,244.167 754.333,239.833 754,235.5C 753.054,238.312 751.387,240.645 749,242.5C 748.947,239.39 747.614,237.056 745,235.5C 744.667,237.833 744.333,240.167 744,242.5C 743.818,239.774 743.318,237.107 742.5,234.5C 741.417,236.792 741.417,239.125 742.5,241.5C 740.983,243.514 740.316,245.514 740.5,247.5C 737.729,263.318 734.229,278.984 730,294.5C 721.585,295.483 713.085,295.817 704.5,295.5C 713.085,254.749 722.251,214.082 732,173.5C 740.749,172.516 749.582,172.183 758.5,172.5C 757.878,186.672 757.878,200.672 758.5,214.5 Z"/></g>
<g><path style="opacity:0.999" fill="#0a506e" d="M 915.5,172.5 C 930.883,172.082 946.216,172.582 961.5,174C 967.865,177.393 970.865,182.727 970.5,190C 969.892,202.272 966.725,213.772 961,224.5C 958.624,227.045 956.124,229.378 953.5,231.5C 957.157,235.849 958.324,240.849 957,246.5C 953.176,262.13 949.509,277.797 946,293.5C 937.77,295.452 929.27,296.118 920.5,295.5C 923.765,278.271 927.431,261.105 931.5,244C 930.617,241.094 928.617,239.927 925.5,240.5C 921.647,258.577 917.481,276.577 913,294.5C 904.579,295.649 896.079,295.816 887.5,295C 886.941,294.275 886.608,293.442 886.5,292.5C 895.883,252.307 905.549,212.307 915.5,172.5 Z M 935.5,198.5 C 938.167,198.5 940.833,198.5 943.5,198.5C 943.678,205.149 941.678,210.982 937.5,216C 935.866,216.494 934.199,216.66 932.5,216.5C 933.243,210.454 934.243,204.454 935.5,198.5 Z"/></g>
<g><path style="opacity:1" fill="#c8dee7" d="M 252.5,168.5 C 254.624,169.031 256.124,170.365 257,172.5C 257.667,178.167 257.667,183.833 257,189.5C 256.464,191.869 255.297,193.869 253.5,195.5C 252.502,186.525 252.168,177.525 252.5,168.5 Z"/></g>
<g><path style="opacity:0.998" fill="#0b506e" d="M 669.5,271.5 C 666.75,272.821 664.084,274.488 661.5,276.5C 664.167,277.167 666.833,277.833 669.5,278.5C 672.167,280.5 672.167,282.5 669.5,284.5C 672.833,285.167 676.167,285.833 679.5,286.5C 681.41,288.62 683.744,289.954 686.5,290.5C 682.862,293.677 678.528,295.511 673.5,296C 647.089,298.241 637.256,286.408 644,260.5C 650.485,231.061 657.652,201.894 665.5,173C 673.413,172.186 681.246,172.353 689,173.5C 682.692,202.743 676.359,232.077 670,261.5C 669.502,264.817 669.335,268.15 669.5,271.5 Z"/></g>
<g><path style="opacity:0.999" fill="#0a506e" d="M 686.5,290.5 C 683.744,289.954 681.41,288.62 679.5,286.5C 676.167,285.833 672.833,285.167 669.5,284.5C 672.167,282.5 672.167,280.5 669.5,278.5C 666.833,277.833 664.167,277.167 661.5,276.5C 664.084,274.488 666.75,272.821 669.5,271.5C 674.803,272.264 677.636,269.93 678,264.5C 684.851,234.077 692.017,203.744 699.5,173.5C 707.778,172.53 716.111,172.197 724.5,172.5C 718.621,203.353 711.787,234.02 704,264.5C 701.824,275.806 695.991,284.473 686.5,290.5 Z"/></g>
<g><path style="opacity:1" fill="#0a4f6c" d="M 857.5,172.5 C 873.837,172.333 890.17,172.5 906.5,173C 906.957,173.414 907.291,173.914 907.5,174.5C 905.703,182.858 903.37,191.024 900.5,199C 892.588,199.183 884.754,199.683 877,200.5C 876.408,206.295 875.241,211.961 873.5,217.5C 880.476,218.331 887.476,218.831 894.5,219C 895.022,219.561 895.355,220.228 895.5,221C 893.432,228.437 891.599,235.937 890,243.5C 882.587,244.481 875.087,244.814 867.5,244.5C 865.731,252.743 863.731,260.91 861.5,269C 869.493,269.5 877.493,269.666 885.5,269.5C 884.476,277.955 882.809,286.288 880.5,294.5C 863.513,295.499 846.513,295.833 829.5,295.5C 837.814,254.26 847.148,213.26 857.5,172.5 Z"/></g>
<g><path style="opacity:1" fill="#0b4d6b" d="M 462.5,171.5 C 462.631,172.376 462.298,173.043 461.5,173.5C 455.446,176.65 449.113,177.65 442.5,176.5C 437.695,178.992 433.528,182.325 430,186.5C 428.996,189.993 429.496,193.159 431.5,196C 429.65,195.405 427.65,194.905 425.5,194.5C 425.335,198.003 427.002,200.003 430.5,200.5C 432.777,199.522 435.11,198.855 437.5,198.5C 437.557,193.318 438.224,193.318 439.5,198.5C 440.72,197.289 441.887,197.289 443,198.5C 443.667,195.833 444.333,195.833 445,198.5C 446.074,197.382 447.24,196.382 448.5,195.5C 447.833,194.833 447.167,194.167 446.5,193.5C 450.543,191.772 454.043,192.438 457,195.5C 457.696,199.905 457.363,204.239 456,208.5C 455.517,207.552 455.351,206.552 455.5,205.5C 455.5,202.5 455.5,199.5 455.5,196.5C 451.192,195.735 448.358,197.402 447,201.5C 441.706,223.637 436.539,245.804 431.5,268C 432.602,272.812 435.102,273.645 439,270.5C 441.282,264.854 443.115,259.187 444.5,253.5C 444.577,254.75 445.244,255.583 446.5,256C 445.606,258.068 444.94,260.235 444.5,262.5C 442.728,268.738 439.061,273.404 433.5,276.5C 434.689,277.429 436.022,277.762 437.5,277.5C 437.5,278.833 437.5,280.167 437.5,281.5C 434.753,281.187 432.086,281.52 429.5,282.5C 433.381,283.986 437.048,283.652 440.5,281.5C 441.888,282.591 442.388,283.924 442,285.5C 440.27,285.509 438.437,285.842 436.5,286.5C 437.689,287.429 439.022,287.762 440.5,287.5C 440.5,288.5 440.5,289.5 440.5,290.5C 441.873,290.657 443.207,290.49 444.5,290C 443.692,289.692 443.025,289.192 442.5,288.5C 445.983,286.213 449.816,284.88 454,284.5C 454.464,285.094 454.631,285.761 454.5,286.5C 450.084,291.713 444.417,294.879 437.5,296C 426.327,298.337 416.827,295.504 409,287.5C 406.5,282.999 405.333,278.166 405.5,273C 409.875,244.667 416.375,216.834 425,189.5C 433.789,175.95 446.289,169.95 462.5,171.5 Z"/></g>
<g><path style="opacity:1" fill="#074d6b" d="M 496.5,172.5 C 509.504,172.333 522.504,172.5 535.5,173C 545.945,174.446 550.945,180.446 550.5,191C 550.258,201.139 547.758,210.639 543,219.5C 540.318,222.35 537.484,225.016 534.5,227.5C 536.622,229.451 538.122,231.785 539,234.5C 540.843,252.628 536.843,269.294 527,284.5C 522.108,290.197 515.941,293.697 508.5,295C 495.5,295.667 482.5,295.667 469.5,295C 477.131,254.025 486.131,213.191 496.5,172.5 Z M 517.5,194.5 C 519.792,194.244 521.959,194.577 524,195.5C 523.773,202.411 522.273,209.078 519.5,215.5C 517.49,217.171 515.157,217.838 512.5,217.5C 513.7,209.705 515.366,202.038 517.5,194.5 Z M 506.5,239.5 C 514.003,238.853 516.503,242.186 514,249.5C 512.53,255.573 510.864,261.573 509,267.5C 506.477,270.288 503.31,271.621 499.5,271.5C 501.833,260.833 504.167,250.167 506.5,239.5 Z"/></g>
<g><path style="opacity:1" fill="#0a506d" d="M 740.5,247.5 C 740.316,245.514 740.983,243.514 742.5,241.5C 741.417,239.125 741.417,236.792 742.5,234.5C 743.318,237.107 743.818,239.774 744,242.5C 744.333,240.167 744.667,237.833 745,235.5C 747.614,237.056 748.947,239.39 749,242.5C 751.387,240.645 753.054,238.312 754,235.5C 754.333,239.833 754.667,244.167 755,248.5C 756.591,242.166 757.757,235.666 758.5,229C 758.333,226.5 758.167,224 758,221.5C 757.333,220.167 756.667,220.167 756,221.5C 754.916,218.341 755.75,216.008 758.5,214.5C 760.967,200.663 764.134,186.996 768,173.5C 776.088,172.352 784.254,172.185 792.5,173C 793.059,173.725 793.392,174.558 793.5,175.5C 784.205,215.512 774.538,255.345 764.5,295C 756.507,295.5 748.507,295.666 740.5,295.5C 740.758,279.32 740.758,263.32 740.5,247.5 Z"/></g>
<g><path style="opacity:1" fill="#99c7d8" d="M 194.5,129.5 C 196.304,128.838 198.304,128.505 200.5,128.5C 229.619,131.785 245.952,147.952 249.5,177C 247.999,210.334 230.666,227.834 197.5,229.5C 193.061,229.246 188.728,228.412 184.5,227C 169.767,220.098 159.767,208.932 154.5,193.5C 154.5,192.167 154.5,190.833 154.5,189.5C 155.848,188.814 157.015,187.814 158,186.5C 158.872,190.667 160.039,194.667 161.5,198.5C 162.675,198.281 163.675,198.614 164.5,199.5C 174.427,216.312 189.094,223.478 208.5,221C 233.626,212.618 244.459,195.118 241,168.5C 236.587,155.581 228.087,146.247 215.5,140.5C 214.614,139.675 214.281,138.675 214.5,137.5C 213.127,137.657 211.793,137.49 210.5,137C 210.501,135.601 210.835,134.101 211.5,132.5C 210.975,131.808 210.308,131.308 209.5,131C 204.58,129.75 199.58,129.25 194.5,129.5 Z"/></g>
<g><path style="opacity:1" fill="#0b506d" d="M 798.5,172.5 C 816.17,172.333 833.836,172.5 851.5,173C 852.022,173.561 852.355,174.228 852.5,175C 850.277,182.39 848.611,189.89 847.5,197.5C 842.28,198.031 837.113,198.697 832,199.5C 824.792,231.206 817.459,262.872 810,294.5C 801.585,295.483 793.085,295.817 784.5,295.5C 791.34,263.138 798.34,230.805 805.5,198.5C 801.818,198.665 798.152,198.499 794.5,198C 793.422,197.326 792.755,196.326 792.5,195C 794.063,187.334 796.063,179.834 798.5,172.5 Z"/></g>
<g><path style="opacity:1" fill="#d5ecf2" d="M 273.5,207.5 C 272.666,208.748 271.333,209.415 269.5,209.5C 265.827,209.953 262.16,210.453 258.5,211C 257.944,211.383 257.611,211.883 257.5,212.5C 245.812,217.679 240.979,226.679 243,239.5C 243.6,241.91 244.766,243.91 246.5,245.5C 252.016,255.293 260.349,258.793 271.5,256C 280.494,252.841 286.161,246.674 288.5,237.5C 289.124,237.917 289.457,238.584 289.5,239.5C 288.534,243.733 287.201,247.733 285.5,251.5C 278.083,260.079 268.749,262.912 257.5,260C 248.009,256.197 241.843,249.364 239,239.5C 238.268,233.386 238.768,227.386 240.5,221.5C 247.952,208.951 258.952,204.284 273.5,207.5 Z"/></g>
<g><path style="opacity:1" fill="#94c6db" d="M 273.5,207.5 C 277.112,208.639 280.446,210.306 283.5,212.5C 288.019,216.209 291.019,220.876 292.5,226.5C 292.662,232.555 292.162,238.555 291,244.5C 289.303,247.02 287.47,249.353 285.5,251.5C 287.201,247.733 288.534,243.733 289.5,239.5C 289.457,238.584 289.124,237.917 288.5,237.5C 288.331,219.664 279.331,210.997 261.5,211.5C 260.167,211.833 258.833,212.167 257.5,212.5C 257.611,211.883 257.944,211.383 258.5,211C 262.16,210.453 265.827,209.953 269.5,209.5C 271.333,209.415 272.666,208.748 273.5,207.5 Z"/></g>
<g><path style="opacity:1" fill="#6ed8ec" d="M 261.5,211.5 C 266.161,212.181 270.828,213.347 275.5,215C 277.609,216.141 279.442,217.641 281,219.5C 283.575,226.42 283.909,233.42 282,240.5C 279.569,245.979 275.403,249.479 269.5,251C 257.388,253.067 249.388,248.234 245.5,236.5C 245.167,237.333 244.833,238.167 244.5,239C 245.618,241.059 246.285,243.226 246.5,245.5C 244.766,243.91 243.6,241.91 243,239.5C 240.979,226.679 245.812,217.679 257.5,212.5C 258.833,212.167 260.167,211.833 261.5,211.5 Z"/></g>
<g><path style="opacity:1" fill="#bed8e2" d="M 186.5,233.5 C 187.705,232.314 189.039,232.314 190.5,233.5C 193.628,234.632 196.962,235.465 200.5,236C 202.544,236.498 203.878,237.665 204.5,239.5C 197.209,240.983 191.209,238.983 186.5,233.5 Z"/></g>
<g><path style="opacity:1" fill="#6797b1" d="M 190.5,233.5 C 193.5,233.5 196.5,233.5 199.5,233.5C 204.324,233.965 209.324,234.132 214.5,234C 211.589,236.622 208.256,238.455 204.5,239.5C 203.878,237.665 202.544,236.498 200.5,236C 196.962,235.465 193.628,234.632 190.5,233.5 Z"/></g>
<g><path style="opacity:1" fill="#eff3f3" d="M 182.5,234.5 C 188.1,238.976 194.1,242.976 200.5,246.5C 196.811,250.52 193.145,254.52 189.5,258.5C 188.206,259.29 187.039,260.29 186,261.5C 182.216,255.304 178.716,248.97 175.5,242.5C 175.846,241.151 176.179,239.817 176.5,238.5C 177.403,234.856 179.403,233.523 182.5,234.5 Z"/></g>
<g><path style="opacity:1" fill="#edf5f6" d="M 209.5,242.5 C 210.833,242.5 212.167,242.5 213.5,242.5C 214.691,247.645 214.691,252.645 213.5,257.5C 209.521,254.188 205.854,250.521 202.5,246.5C 204.4,244.384 206.733,243.051 209.5,242.5 Z"/></g>
<g><path style="opacity:1" fill="#284257" d="M 176.5,238.5 C 176.179,239.817 175.846,241.151 175.5,242.5C 178.716,248.97 182.216,255.304 186,261.5C 187.039,260.29 188.206,259.29 189.5,258.5C 189.5,259.167 189.5,259.833 189.5,260.5C 188.915,262.922 187.415,264.589 185,265.5C 181.6,258.431 177.767,251.598 173.5,245C 170.549,244.978 167.883,245.811 165.5,247.5C 164.833,247.5 164.167,247.5 163.5,247.5C 163.539,246.417 163.873,245.417 164.5,244.5C 167.768,243.513 171.102,243.18 174.5,243.5C 174.077,241.219 174.744,239.552 176.5,238.5 Z"/></g>
<g><path style="opacity:1" fill="#499eb6" d="M 261.5,211.5 C 279.331,210.997 288.331,219.664 288.5,237.5C 286.161,246.674 280.494,252.841 271.5,256C 260.349,258.793 252.016,255.293 246.5,245.5C 246.285,243.226 245.618,241.059 244.5,239C 244.833,238.167 245.167,237.333 245.5,236.5C 249.388,248.234 257.388,253.067 269.5,251C 275.403,249.479 279.569,245.979 282,240.5C 283.909,233.42 283.575,226.42 281,219.5C 279.442,217.641 277.609,216.141 275.5,215C 270.828,213.347 266.161,212.181 261.5,211.5 Z"/></g>
<g><path style="opacity:1" fill="#b1d7e5" d="M 213.5,257.5 C 214.691,252.645 214.691,247.645 213.5,242.5C 212.167,242.5 210.833,242.5 209.5,242.5C 213.129,239.347 217.129,236.68 221.5,234.5C 225.936,236.379 227.436,239.712 226,244.5C 223,250.167 220,255.833 217,261.5C 215.624,260.295 214.458,258.962 213.5,257.5 Z"/></g>
<g><path style="opacity:1" fill="#add7e5" d="M 236.5,250.5 C 234.292,257.248 231.292,263.581 227.5,269.5C 227.302,266.619 225.802,264.619 223,263.5C 221.388,265.739 219.555,267.739 217.5,269.5C 214.355,267.687 211.022,266.354 207.5,265.5C 208.114,263.277 209.448,261.611 211.5,260.5C 213.5,262.167 215.5,263.833 217.5,265.5C 221.294,258.746 224.961,251.913 228.5,245C 231.502,245.158 234.502,245.658 237.5,246.5C 237.768,248.099 237.434,249.432 236.5,250.5 Z"/></g>
<g><path style="opacity:1" fill="#032744" d="M 306.5,220.5 C 309.229,239.376 307.229,257.71 300.5,275.5C 299.962,277.117 299.629,278.784 299.5,280.5C 297.21,283.606 295.21,286.939 293.5,290.5C 292.833,291.167 292.167,291.833 291.5,292.5C 290.596,291.791 290.263,290.791 290.5,289.5C 289.5,289.5 288.5,289.5 287.5,289.5C 287.737,288.209 287.404,287.209 286.5,286.5C 286.5,286.167 286.5,285.833 286.5,285.5C 286.586,284.504 286.252,283.671 285.5,283C 283.292,282.809 281.292,282.309 279.5,281.5C 280.209,280.596 281.209,280.263 282.5,280.5C 283.35,273.667 280.683,271.334 274.5,273.5C 271.933,273.721 269.599,274.388 267.5,275.5C 264.843,275.935 262.509,276.935 260.5,278.5C 257.509,278.166 255.176,279.166 253.5,281.5C 250.947,283.705 250.947,286.038 253.5,288.5C 255.167,289.167 256.833,289.833 258.5,290.5C 258.323,294.234 258.656,297.901 259.5,301.5C 259.918,302.222 260.584,302.722 261.5,303C 260.199,304.616 260.199,306.116 261.5,307.5C 262.136,309.795 263.469,311.461 265.5,312.5C 265.5,315.167 265.5,317.833 265.5,320.5C 263.167,322.5 260.833,324.5 258.5,326.5C 248.712,331.894 238.378,335.894 227.5,338.5C 232.259,322.004 236.092,305.337 239,288.5C 239.667,279.5 239.667,270.5 239,261.5C 237.092,258.794 236.259,255.794 236.5,252.5C 237.738,251.588 239.072,251.421 240.5,252C 241.24,255.91 243.573,257.744 247.5,257.5C 253.403,261.813 260.07,263.98 267.5,264C 266.189,266.967 266.522,269.8 268.5,272.5C 273.941,270.778 274.941,267.611 271.5,263C 289.293,256.902 296.293,244.735 292.5,226.5C 291.019,220.876 288.019,216.209 283.5,212.5C 285.482,213.817 287.482,213.817 289.5,212.5C 293.009,215.734 296.175,214.734 299,209.5C 299.471,211.246 300.138,212.913 301,214.5C 301.333,213.833 301.667,213.167 302,212.5C 302.986,214.778 303.82,217.111 304.5,219.5C 304.957,220.298 305.624,220.631 306.5,220.5 Z"/></g>
<g><path style="opacity:1" fill="#a7b5bc" d="M 306.5,217.5 C 307.29,218.609 307.79,219.942 308,221.5C 308.253,235.199 308.42,248.865 308.5,262.5C 308.333,263.5 308.167,264.5 308,265.5C 307.465,263.729 306.631,263.396 305.5,264.5C 304.384,268.556 302.717,272.223 300.5,275.5C 307.229,257.71 309.229,239.376 306.5,220.5C 306.5,219.5 306.5,218.5 306.5,217.5 Z"/></g>
<g><path style="opacity:1" fill="#5085a0" d="M 240.5,221.5 C 238.768,227.386 238.268,233.386 239,239.5C 241.843,249.364 248.009,256.197 257.5,260C 268.749,262.912 278.083,260.079 285.5,251.5C 287.47,249.353 289.303,247.02 291,244.5C 292.162,238.555 292.662,232.555 292.5,226.5C 296.293,244.735 289.293,256.902 271.5,263C 274.941,267.611 273.941,270.778 268.5,272.5C 266.522,269.8 266.189,266.967 267.5,264C 260.07,263.98 253.403,261.813 247.5,257.5C 243.363,253.865 240.196,249.531 238,244.5C 237.333,238.167 237.333,231.833 238,225.5C 238.2,223.68 239.034,222.347 240.5,221.5 Z"/></g>
<g><path style="opacity:1" fill="#eff5f7" d="M 189.5,260.5 C 192.292,260.452 194.125,261.785 195,264.5C 194.561,278.84 193.727,293.173 192.5,307.5C 188.641,299.919 184.974,292.253 181.5,284.5C 181.068,283.29 180.401,282.29 179.5,281.5C 175.161,269.896 170.494,258.563 165.5,247.5C 167.883,245.811 170.549,244.978 173.5,245C 177.767,251.598 181.6,258.431 185,265.5C 187.415,264.589 188.915,262.922 189.5,260.5 Z"/></g>
<g><path style="opacity:1" fill="#f4f9f8" d="M 227.5,269.5 C 223.031,281.72 217.865,293.72 212,305.5C 211.667,305.833 211.333,306.167 211,306.5C 210.768,305.263 210.268,304.263 209.5,303.5C 208.833,290.833 208.167,278.167 207.5,265.5C 211.022,266.354 214.355,267.687 217.5,269.5C 219.555,267.739 221.388,265.739 223,263.5C 225.802,264.619 227.302,266.619 227.5,269.5 Z"/></g>
<g><path style="opacity:1" fill="#3a7c97" d="M 163.5,247.5 C 164.167,247.5 164.833,247.5 165.5,247.5C 170.494,258.563 175.161,269.896 179.5,281.5C 167.5,281.5 155.5,281.5 143.5,281.5C 143.826,272.651 143.493,263.984 142.5,255.5C 149.28,252.459 156.28,249.792 163.5,247.5 Z"/></g>
<g><path style="opacity:1" fill="#f1f8f9" d="M 274.5,273.5 C 276.167,273.5 277.833,273.5 279.5,273.5C 279.739,275.467 279.406,277.301 278.5,279C 275.012,280.595 271.512,281.095 268,280.5C 267.506,278.866 267.34,277.199 267.5,275.5C 269.599,274.388 271.933,273.721 274.5,273.5 Z"/></g>
<g><path style="opacity:1" fill="#f3f7fa" d="M 260.5,278.5 C 262.167,278.5 263.833,278.5 265.5,278.5C 265.66,280.199 265.494,281.866 265,283.5C 262.815,284.67 260.649,285.836 258.5,287C 254.498,287.563 252.831,285.73 253.5,281.5C 255.176,279.166 257.509,278.166 260.5,278.5 Z"/></g>
<g><path style="opacity:1" fill="#a6c7d3" d="M 274.5,273.5 C 280.683,271.334 283.35,273.667 282.5,280.5C 281.209,280.263 280.209,280.596 279.5,281.5C 273.773,282.242 268.439,284.076 263.5,287C 260.243,288.043 256.91,288.543 253.5,288.5C 250.947,286.038 250.947,283.705 253.5,281.5C 252.831,285.73 254.498,287.563 258.5,287C 260.649,285.836 262.815,284.67 265,283.5C 265.494,281.866 265.66,280.199 265.5,278.5C 263.833,278.5 262.167,278.5 260.5,278.5C 262.509,276.935 264.843,275.935 267.5,275.5C 267.34,277.199 267.506,278.866 268,280.5C 271.512,281.095 275.012,280.595 278.5,279C 279.406,277.301 279.739,275.467 279.5,273.5C 277.833,273.5 276.167,273.5 274.5,273.5 Z"/></g>
<g><path style="opacity:1" fill="#173956" d="M 143.5,281.5 C 155.5,281.5 167.5,281.5 179.5,281.5C 180.401,282.29 181.068,283.29 181.5,284.5C 181.174,302.743 181.508,320.91 182.5,339C 181.906,339.464 181.239,339.631 180.5,339.5C 178.901,339.768 177.568,339.434 176.5,338.5C 177.833,338.5 179.167,338.5 180.5,338.5C 180.667,323.83 180.5,309.163 180,294.5C 175.261,286.528 173.761,287.362 175.5,297C 174.063,310.447 173.396,323.947 173.5,337.5C 173.167,337.5 172.833,337.5 172.5,337.5C 172.5,320.5 172.5,303.5 172.5,286.5C 171.167,286.5 169.833,286.5 168.5,286.5C 161.5,286.5 154.5,286.5 147.5,286.5C 145.5,286.5 143.5,286.5 141.5,286.5C 141.5,285.5 141.5,284.5 141.5,283.5C 141.5,282.167 142.167,281.5 143.5,281.5 Z"/></g>
<g><path style="opacity:1" fill="#d7e8ed" d="M 286.5,285.5 C 286.5,285.833 286.5,286.167 286.5,286.5C 286.714,288.144 286.38,289.644 285.5,291C 281.321,292.113 277.154,293.28 273,294.5C 270.167,294.333 268.667,292.833 268.5,290C 268.439,288.289 269.106,286.956 270.5,286C 272.952,285.71 275.285,285.044 277.5,284C 280.823,283.068 283.823,283.568 286.5,285.5 Z"/></g>
<g><path style="opacity:1" fill="#022544" d="M 176.5,338.5 C 175.209,338.737 174.209,338.404 173.5,337.5C 173.396,323.947 174.063,310.447 175.5,297C 173.761,287.362 175.261,286.528 180,294.5C 180.5,309.163 180.667,323.83 180.5,338.5C 179.167,338.5 177.833,338.5 176.5,338.5 Z"/></g>
<g><path style="opacity:1" fill="#c5e2ec" d="M 299.5,280.5 C 299.551,282.57 298.885,284.403 297.5,286C 299.321,289.319 301.988,291.819 305.5,293.5C 306.45,296.42 308.116,298.753 310.5,300.5C 305.696,309.112 299.696,316.779 292.5,323.5C 291.637,320.503 292.637,317.836 295.5,315.5C 298.75,310.216 297.916,305.882 293,302.5C 292.643,298.49 292.81,294.49 293.5,290.5C 295.21,286.939 297.21,283.606 299.5,280.5 Z"/></g>
<g><path style="opacity:1" fill="#9bc7db" d="M 259.5,301.5 C 258.656,297.901 258.323,294.234 258.5,290.5C 260.861,290.326 263.194,289.993 265.5,289.5C 266.931,292.354 267.764,295.354 268,298.5C 265.748,300.927 262.914,301.927 259.5,301.5 Z"/></g>
<g><path style="opacity:1" fill="#1c3f5a" d="M 279.5,281.5 C 281.292,282.309 283.292,282.809 285.5,283C 286.252,283.671 286.586,284.504 286.5,285.5C 283.823,283.568 280.823,283.068 277.5,284C 275.285,285.044 272.952,285.71 270.5,286C 269.106,286.956 268.439,288.289 268.5,290C 268.667,292.833 270.167,294.333 273,294.5C 277.154,293.28 281.321,292.113 285.5,291C 286.38,289.644 286.714,288.144 286.5,286.5C 287.404,287.209 287.737,288.209 287.5,289.5C 288.5,289.5 289.5,289.5 290.5,289.5C 290.263,290.791 290.596,291.791 291.5,292.5C 291.716,296.059 291.382,299.559 290.5,303C 294.652,307.697 294.485,312.197 290,316.5C 289.22,324.972 285.054,327.305 277.5,323.5C 277.406,320.932 276.072,319.432 273.5,319C 272.128,317.758 271.128,316.258 270.5,314.5C 269.311,313.571 267.978,313.238 266.5,313.5C 266.802,316.059 266.468,318.393 265.5,320.5C 265.5,317.833 265.5,315.167 265.5,312.5C 268.94,312.663 270.94,310.996 271.5,307.5C 269.465,306.403 268.132,304.737 267.5,302.5C 265.885,303.154 264.218,303.654 262.5,304C 261.663,305.011 261.33,306.178 261.5,307.5C 260.199,306.116 260.199,304.616 261.5,303C 260.584,302.722 259.918,302.222 259.5,301.5C 262.914,301.927 265.748,300.927 268,298.5C 267.764,295.354 266.931,292.354 265.5,289.5C 263.194,289.993 260.861,290.326 258.5,290.5C 256.833,289.833 255.167,289.167 253.5,288.5C 256.91,288.543 260.243,288.043 263.5,287C 268.439,284.076 273.773,282.242 279.5,281.5 Z"/></g>
<g><path style="opacity:1" fill="#edf7f9" d="M 287.5,296.5 C 287.703,298.39 287.037,299.89 285.5,301C 281.21,301.923 276.877,302.423 272.5,302.5C 272.253,300.142 272.919,298.142 274.5,296.5C 277.722,296.15 280.888,295.483 284,294.5C 285.699,294.387 286.866,295.053 287.5,296.5 Z"/></g>
<g><path style="opacity:1" fill="#99c8da" d="M 168.5,286.5 C 169.833,286.5 171.167,286.5 172.5,286.5C 172.5,303.5 172.5,320.5 172.5,337.5C 171.178,337.67 170.011,337.337 169,336.5C 168.5,319.837 168.333,303.17 168.5,286.5 Z"/></g>
<g><path style="opacity:1" fill="#a3c3d2" d="M 274.5,296.5 C 272.919,298.142 272.253,300.142 272.5,302.5C 276.877,302.423 281.21,301.923 285.5,301C 287.037,299.89 287.703,298.39 287.5,296.5C 290.017,298.077 290.017,299.91 287.5,302C 282.67,304.219 277.67,305.219 272.5,305C 270.604,303.192 270.104,301.025 271,298.5C 271.816,297.177 272.983,296.511 274.5,296.5 Z"/></g>
<g><path style="opacity:1" fill="#95c1d5" d="M 265.5,312.5 C 263.469,311.461 262.136,309.795 261.5,307.5C 261.33,306.178 261.663,305.011 262.5,304C 264.218,303.654 265.885,303.154 267.5,302.5C 268.132,304.737 269.465,306.403 271.5,307.5C 270.94,310.996 268.94,312.663 265.5,312.5 Z"/></g>
<g><path style="opacity:1" fill="#7db9cd" d="M 145.5,324.5 C 141.264,322.277 137.264,319.611 133.5,316.5C 132.967,310.097 134.3,304.097 137.5,298.5C 139.045,297.77 139.878,296.437 140,294.5C 141.885,296.02 144.051,297.02 146.5,297.5C 148.104,306.425 148.77,315.425 148.5,324.5C 147.5,324.5 146.5,324.5 145.5,324.5 Z"/></g>
<g><path style="opacity:1" fill="#a6d2e0" d="M 141.5,283.5 C 141.5,284.5 141.5,285.5 141.5,286.5C 143.5,286.5 145.5,286.5 147.5,286.5C 147.211,290.106 147.544,293.606 148.5,297C 153.489,297.499 158.489,297.666 163.5,297.5C 163.5,309.5 163.5,321.5 163.5,333.5C 156.651,332.076 150.651,329.076 145.5,324.5C 146.5,324.5 147.5,324.5 148.5,324.5C 148.77,315.425 148.104,306.425 146.5,297.5C 144.051,297.02 141.885,296.02 140,294.5C 139.878,296.437 139.045,297.77 137.5,298.5C 138.389,293.272 139.722,288.272 141.5,283.5 Z"/></g>
<g><path style="opacity:1" fill="#acc8d9" d="M 275.5,308.5 C 276.263,307.732 277.263,307.232 278.5,307C 282.167,306.333 285.833,306.333 289.5,307C 290.982,309.592 290.648,311.925 288.5,314C 283.925,315.541 279.258,316.208 274.5,316C 271.61,312.89 271.944,310.39 275.5,308.5 Z"/></g>
<g><path style="opacity:1" fill="#f3faf8" d="M 275.5,308.5 C 279.857,308.414 284.19,308.08 288.5,307.5C 288.714,309.144 288.38,310.644 287.5,312C 284.167,312.833 280.833,313.667 277.5,314.5C 274.625,313.207 273.958,311.207 275.5,308.5 Z"/></g>
<g><path style="opacity:1" fill="#99c3d6" d="M 293.5,290.5 C 292.81,294.49 292.643,298.49 293,302.5C 297.916,305.882 298.75,310.216 295.5,315.5C 292.637,317.836 291.637,320.503 292.5,323.5C 291.167,325.5 289.5,327.167 287.5,328.5C 284.501,326.499 281.335,326.166 278,327.5C 277.51,326.207 277.343,324.873 277.5,323.5C 285.054,327.305 289.22,324.972 290,316.5C 294.485,312.197 294.652,307.697 290.5,303C 291.382,299.559 291.716,296.059 291.5,292.5C 292.167,291.833 292.833,291.167 293.5,290.5 Z"/></g>
<g><path style="opacity:1" fill="#c7e5ee" d="M 277.5,323.5 C 277.343,324.873 277.51,326.207 278,327.5C 281.335,326.166 284.501,326.499 287.5,328.5C 283.896,331.975 279.896,334.975 275.5,337.5C 274.668,336.671 275.001,335.838 276.5,335C 274.153,330.843 270.987,327.343 267,324.5C 264.361,325.994 261.528,326.661 258.5,326.5C 260.833,324.5 263.167,322.5 265.5,320.5C 266.468,318.393 266.802,316.059 266.5,313.5C 267.978,313.238 269.311,313.571 270.5,314.5C 271.128,316.258 272.128,317.758 273.5,319C 276.072,319.432 277.406,320.932 277.5,323.5 Z"/></g>
<g><path style="opacity:1" fill="#1e5775" d="M 236.5,250.5 C 236.5,251.167 236.5,251.833 236.5,252.5C 236.259,255.794 237.092,258.794 239,261.5C 239.667,270.5 239.667,279.5 239,288.5C 236.092,305.337 232.259,322.004 227.5,338.5C 211.921,343.369 196.254,343.702 180.5,339.5C 181.239,339.631 181.906,339.464 182.5,339C 181.508,320.91 181.174,302.743 181.5,284.5C 184.974,292.253 188.641,299.919 192.5,307.5C 195.04,315.585 197.874,323.585 201,331.5C 204.544,324.158 207.71,316.658 210.5,309C 209.767,307.234 209.433,305.401 209.5,303.5C 210.268,304.263 210.768,305.263 211,306.5C 211.333,306.167 211.667,305.833 212,305.5C 217.865,293.72 223.031,281.72 227.5,269.5C 231.292,263.581 234.292,257.248 236.5,250.5 Z"/></g>
</svg>
